<svg id="svg" version="1.1" xmlns="http://www.w3.org/2000/svg" xmlns:xlink="http://www.w3.org/1999/xlink" width="400" height="400" viewBox="0, 0, 400,400"><g id="svgg"><path id="path0" d="M167.814 103.973 C 167.480 104.619,165.966 107.994,164.449 111.473 C 162.933 114.953,161.244 118.790,160.697 120.000 C 160.149 121.210,159.033 123.730,158.215 125.600 C 157.398 127.470,156.363 129.810,155.915 130.800 C 155.467 131.790,154.203 134.670,153.106 137.200 C 152.008 139.730,150.698 142.700,150.192 143.800 C 149.687 144.900,148.897 146.655,148.437 147.700 C 147.977 148.745,147.215 150.455,146.744 151.500 C 146.272 152.545,144.314 157.000,142.392 161.400 C 140.470 165.800,138.412 170.480,137.819 171.800 C 137.226 173.120,136.503 174.740,136.212 175.400 C 135.922 176.060,135.280 177.500,134.786 178.600 C 134.292 179.700,132.943 182.760,131.789 185.400 C 130.634 188.040,129.220 191.223,128.645 192.474 C 128.070 193.725,127.600 194.834,127.600 194.939 C 127.600 195.043,126.954 196.540,126.165 198.264 C 125.376 199.989,124.320 202.300,123.819 203.400 L 122.907 205.400 141.154 205.600 L 159.400 205.800 159.502 251.500 L 159.603 297.200 216.002 297.200 C 269.718 297.200,272.433 297.166,273.100 296.482 C 273.908 295.654,280.545 288.388,283.200 285.425 C 284.190 284.320,285.751 282.603,286.669 281.608 C 287.588 280.614,288.763 279.305,289.282 278.700 C 290.643 277.113,290.457 276.977,297.209 284.473 C 304.537 292.607,307.151 295.487,308.100 296.473 C 308.755 297.154,309.900 297.200,326.000 297.200 L 343.200 297.200 343.200 291.600 L 343.200 286.000 328.642 286.000 L 314.084 286.000 310.542 282.130 C 308.594 280.002,306.640 277.857,306.200 277.363 C 305.238 276.283,300.828 271.434,295.229 265.300 C 292.970 262.825,290.975 260.800,290.795 260.800 C 290.519 260.800,286.456 265.090,280.378 271.800 C 279.581 272.680,276.954 275.560,274.541 278.200 C 272.128 280.840,269.550 283.675,268.813 284.500 L 267.471 286.000 219.336 286.000 L 171.200 286.000 171.200 245.800 L 171.200 205.600 219.734 205.600 L 268.267 205.600 272.634 210.464 C 275.035 213.139,277.189 215.524,277.420 215.764 C 277.650 216.004,280.776 219.440,284.366 223.400 C 292.089 231.920,291.028 231.295,293.390 228.710 C 294.450 227.550,296.956 224.813,298.959 222.629 C 300.961 220.445,302.960 218.257,303.400 217.767 C 304.577 216.456,306.948 213.860,310.966 209.484 L 314.533 205.600 328.866 205.600 L 343.200 205.600 343.200 200.000 L 343.200 194.400 332.200 194.400 L 321.200 194.400 321.200 167.376 C 321.200 152.378,321.047 140.447,320.856 140.566 C 320.666 140.683,320.028 142.178,319.438 143.889 C 318.848 145.600,318.126 147.630,317.833 148.400 C 316.674 151.452,315.478 154.705,310.998 167.000 C 305.721 181.484,304.839 183.869,304.340 185.000 C 304.147 185.440,303.824 186.340,303.624 187.000 C 303.424 187.660,302.868 189.190,302.390 190.400 C 301.912 191.610,301.427 193.005,301.313 193.500 L 301.107 194.400 291.226 194.400 L 281.346 194.400 274.639 176.100 C 270.950 166.035,267.772 157.440,267.577 157.000 C 267.262 156.290,266.909 155.325,265.604 151.600 C 265.412 151.050,264.786 149.340,264.214 147.800 C 263.642 146.260,262.775 143.846,262.287 142.435 L 261.400 139.871 261.297 167.139 L 261.194 194.406 237.913 194.303 L 214.631 194.200 214.121 193.200 C 213.841 192.650,212.604 189.770,211.372 186.800 C 210.140 183.830,208.842 180.723,208.487 179.896 L 207.843 178.392 189.650 178.496 L 171.457 178.600 170.347 181.200 C 169.737 182.630,168.498 185.600,167.592 187.800 C 166.687 190.000,165.680 192.385,165.354 193.100 L 164.762 194.400 152.581 194.400 C 145.882 194.400,140.400 194.308,140.400 194.195 C 140.400 194.082,140.567 193.677,140.771 193.295 C 140.976 192.913,141.500 191.790,141.937 190.800 C 142.374 189.810,143.132 188.100,143.622 187.000 C 144.112 185.900,146.096 181.376,148.032 176.947 C 149.968 172.518,151.946 168.018,152.428 166.947 C 153.827 163.838,154.670 161.941,155.603 159.800 C 156.082 158.700,156.888 156.900,157.395 155.800 C 157.901 154.700,159.482 151.100,160.908 147.800 C 162.334 144.500,163.906 140.900,164.402 139.800 C 164.898 138.700,165.625 137.080,166.017 136.200 C 166.409 135.320,167.216 133.520,167.810 132.200 C 168.404 130.880,170.332 126.470,172.093 122.400 C 173.855 118.330,175.478 114.773,175.701 114.495 C 176.017 114.102,179.216 114.013,190.138 114.095 L 204.170 114.200 204.690 115.200 C 204.976 115.750,205.845 117.640,206.622 119.400 C 207.398 121.160,208.196 122.960,208.395 123.400 C 208.595 123.840,209.287 125.370,209.935 126.800 C 210.582 128.230,212.211 131.944,213.555 135.053 C 214.899 138.162,216.268 141.222,216.597 141.853 C 216.926 142.484,217.196 143.128,217.198 143.285 C 217.199 143.441,217.845 144.971,218.633 146.685 C 219.422 148.398,220.222 150.160,220.412 150.600 C 220.602 151.040,221.286 152.570,221.933 154.000 C 222.579 155.430,224.008 158.670,225.108 161.200 C 226.876 165.263,228.483 168.909,229.606 171.400 C 231.682 176.004,233.103 179.235,235.628 185.089 C 237.263 188.879,238.734 191.984,238.898 191.989 C 239.062 191.995,239.242 174.495,239.298 153.100 L 239.400 114.200 256.507 114.096 L 273.613 113.991 273.963 114.896 C 275.085 117.798,275.730 119.556,277.522 124.600 C 278.617 127.680,280.417 132.720,281.523 135.800 C 282.629 138.880,284.554 144.280,285.802 147.800 C 287.049 151.320,288.219 154.560,288.401 155.000 C 288.582 155.440,289.226 157.240,289.830 159.000 C 291.019 162.461,291.474 163.260,291.748 162.367 C 292.011 161.506,297.572 145.998,298.190 144.400 C 298.488 143.630,299.388 141.110,300.190 138.800 C 300.992 136.490,301.891 133.970,302.187 133.200 C 302.483 132.430,303.393 129.910,304.209 127.600 C 305.025 125.290,306.033 122.500,306.450 121.400 C 306.866 120.300,307.612 118.230,308.107 116.800 L 309.006 114.200 326.103 114.096 L 343.200 113.991 343.200 108.392 L 343.200 102.793 322.140 102.896 L 301.081 103.000 300.096 105.600 C 299.107 108.213,296.570 115.306,293.456 124.170 C 292.535 126.793,291.599 129.000,291.378 129.074 C 291.016 129.195,289.631 125.610,285.322 113.400 C 284.546 111.200,283.367 107.915,282.702 106.100 L 281.494 102.800 255.180 102.800 C 240.707 102.800,228.581 102.909,228.233 103.043 C 227.669 103.259,227.600 105.167,227.600 120.443 C 227.600 131.614,227.460 137.600,227.200 137.600 C 226.980 137.600,226.800 137.438,226.800 137.240 C 226.800 137.042,226.102 135.377,225.249 133.540 C 224.396 131.703,222.435 127.320,220.892 123.800 C 218.471 118.280,217.401 115.856,215.599 111.800 C 215.403 111.360,214.604 109.601,213.822 107.891 C 213.040 106.181,212.400 104.619,212.400 104.420 C 212.400 102.825,212.048 102.800,189.782 102.800 L 168.421 102.800 167.814 103.973 M189.200 135.631 C 189.200 135.867,188.584 137.532,187.831 139.331 C 187.079 141.129,185.830 144.130,185.057 146.000 C 184.284 147.870,182.740 151.602,181.626 154.293 C 180.512 156.985,179.600 159.370,179.600 159.593 C 179.600 159.858,183.158 160.000,189.800 160.000 C 195.410 160.000,200.000 159.944,200.000 159.876 C 200.000 159.632,196.528 151.045,195.602 149.000 C 195.403 148.560,194.499 146.400,193.593 144.200 C 192.687 142.000,191.715 139.660,191.433 139.000 C 191.151 138.340,190.691 137.215,190.411 136.500 C 189.923 135.252,189.200 134.733,189.200 135.631 M239.507 215.533 L 239.400 224.600 216.300 224.703 L 193.200 224.806 193.200 230.600 L 193.200 236.393 215.700 236.497 L 238.200 236.600 238.308 245.697 L 238.415 254.793 215.908 254.897 L 193.400 255.000 193.289 260.897 L 193.179 266.793 216.289 266.897 L 239.400 267.000 239.600 275.931 L 239.800 284.861 243.003 281.531 C 246.439 277.958,257.669 266.082,259.245 264.354 C 259.770 263.778,263.800 259.493,268.200 254.831 C 277.705 244.761,277.038 246.144,273.962 242.877 C 272.575 241.405,269.992 238.667,268.221 236.793 C 266.449 234.919,262.300 230.515,259.000 227.007 C 255.700 223.499,251.368 218.912,249.374 216.814 C 247.380 214.716,244.369 211.530,242.682 209.733 L 239.615 206.466 239.507 215.533 M340.840 208.305 C 338.427 210.903,326.055 223.908,320.202 230.000 C 317.559 232.750,313.140 237.371,310.380 240.270 L 305.362 245.540 307.181 247.531 C 309.184 249.725,313.458 254.275,317.577 258.600 C 320.018 261.164,329.984 271.696,339.070 281.315 C 341.088 283.452,342.843 285.200,342.970 285.200 C 343.491 285.200,343.212 268.862,342.689 268.729 C 342.408 268.658,340.473 266.796,338.389 264.592 C 331.145 256.929,323.721 248.990,322.205 247.285 L 320.679 245.570 321.840 244.321 C 322.478 243.634,323.270 242.776,323.600 242.415 C 324.961 240.923,337.614 227.612,340.300 224.846 L 343.200 221.860 343.200 214.130 C 343.200 205.511,343.271 205.688,340.840 208.305 " stroke="none" fill="#fafafb" fill-rule="evenodd"></path><path id="path1" d="M56.800 56.800 C 56.800 57.066,104.800 57.200,200.000 57.200 C 295.200 57.200,343.200 57.066,343.200 56.800 C 343.200 56.534,295.200 56.400,200.000 56.400 C 104.800 56.400,56.800 56.534,56.800 56.800 M227.200 119.424 C 227.200 130.276,227.063 135.962,226.805 135.803 C 226.578 135.663,226.511 135.823,226.647 136.179 C 227.427 138.211,227.600 135.239,227.600 119.800 C 227.600 110.450,227.510 102.800,227.400 102.800 C 227.290 102.800,227.200 110.281,227.200 119.424 M273.818 116.100 C 273.968 116.595,274.255 117.176,274.456 117.391 C 274.657 117.606,274.619 117.201,274.372 116.491 C 273.865 115.038,273.397 114.708,273.818 116.100 M286.867 117.220 C 287.101 117.892,287.367 118.367,287.457 118.276 C 287.656 118.078,286.901 116.000,286.631 116.000 C 286.527 116.000,286.633 116.549,286.867 117.220 M260.800 139.375 C 260.800 139.745,260.965 139.945,261.166 139.821 C 261.367 139.697,261.623 139.821,261.734 140.098 C 261.860 140.411,261.949 140.430,261.968 140.149 C 261.986 139.901,261.730 139.474,261.400 139.200 C 260.907 138.791,260.800 138.822,260.800 139.375 M317.979 146.255 C 317.758 146.836,317.652 147.385,317.743 147.476 C 317.833 147.567,318.099 147.092,318.333 146.420 C 318.853 144.928,318.539 144.782,317.979 146.255 M200.208 159.500 L 200.454 160.400 189.856 160.400 C 180.725 160.400,179.233 160.316,179.070 159.792 C 178.938 159.367,178.901 159.397,178.946 159.892 C 179.006 160.547,179.804 160.608,189.579 160.707 C 200.337 160.815,201.270 160.698,200.422 159.339 C 200.007 158.672,199.986 158.688,200.208 159.500 M171.062 178.300 C 170.960 178.465,179.161 178.551,189.287 178.492 C 203.695 178.408,207.840 178.495,208.349 178.892 C 208.928 179.344,208.939 179.323,208.451 178.700 C 207.870 177.960,171.513 177.571,171.062 178.300 M304.844 182.044 C 304.598 182.751,304.466 183.400,304.552 183.485 C 304.638 183.571,304.909 183.062,305.156 182.356 C 305.402 181.649,305.534 181.000,305.448 180.915 C 305.362 180.829,305.091 181.338,304.844 182.044 M278.867 187.220 C 279.101 187.892,279.367 188.367,279.457 188.276 C 279.656 188.078,278.901 186.000,278.631 186.000 C 278.527 186.000,278.633 186.549,278.867 187.220 M301.979 189.855 C 301.758 190.436,301.652 190.985,301.743 191.076 C 301.833 191.167,302.099 190.692,302.333 190.020 C 302.853 188.528,302.539 188.382,301.979 189.855 M164.657 193.394 C 164.444 193.950,163.047 194.010,152.646 193.912 C 146.172 193.850,140.959 193.935,141.061 194.100 C 141.462 194.746,164.261 194.449,164.808 193.790 C 165.086 193.455,165.221 193.087,165.106 192.973 C 164.992 192.859,164.790 193.049,164.657 193.394 M300.665 193.375 C 300.466 193.893,299.022 194.003,291.115 194.100 L 281.800 194.215 291.051 194.308 C 300.107 194.398,302.247 194.114,301.106 192.973 C 300.992 192.859,300.794 193.040,300.665 193.375 M226.272 194.300 C 232.471 194.362,242.731 194.362,249.072 194.300 C 255.412 194.238,250.340 194.187,237.800 194.187 C 225.260 194.187,220.072 194.238,226.272 194.300 M326.724 194.299 C 329.873 194.367,334.913 194.367,337.924 194.299 C 340.936 194.231,338.360 194.176,332.200 194.176 C 326.040 194.176,323.576 194.232,326.724 194.299 M158.993 251.400 C 158.993 276.480,159.041 286.799,159.100 274.331 C 159.159 261.863,159.159 241.343,159.100 228.731 C 159.041 216.119,158.993 226.320,158.993 251.400 M239.359 206.500 C 239.201 206.775,239.225 206.861,239.412 206.690 C 239.600 206.520,240.663 207.240,241.776 208.290 L 243.800 210.200 241.815 208.100 C 239.569 205.724,239.741 205.836,239.359 206.500 M268.000 206.125 C 268.000 206.194,268.585 206.779,269.300 207.425 L 270.600 208.600 269.425 207.300 C 268.330 206.088,268.000 205.816,268.000 206.125 M313.178 207.500 L 311.800 209.000 313.300 207.622 C 314.696 206.338,314.984 206.000,314.678 206.000 C 314.612 206.000,313.937 206.675,313.178 207.500 M272.400 211.000 C 273.146 211.770,273.847 212.400,273.957 212.400 C 274.067 212.400,273.546 211.770,272.800 211.000 C 272.054 210.230,271.353 209.600,271.243 209.600 C 271.133 209.600,271.654 210.230,272.400 211.000 M336.786 211.900 L 334.600 214.200 336.900 212.014 C 339.037 209.982,339.383 209.600,339.086 209.600 C 339.024 209.600,337.989 210.635,336.786 211.900 M246.400 213.325 C 246.400 213.394,246.985 213.979,247.700 214.625 L 249.000 215.800 247.825 214.500 C 246.730 213.288,246.400 213.016,246.400 213.325 M276.000 215.000 C 276.746 215.770,277.447 216.400,277.557 216.400 C 277.667 216.400,277.146 215.770,276.400 215.000 C 275.654 214.230,274.953 213.600,274.843 213.600 C 274.733 213.600,275.254 214.230,276.000 215.000 M304.400 217.000 C 303.428 217.990,302.723 218.800,302.833 218.800 C 302.943 218.800,303.828 217.990,304.800 217.000 C 305.772 216.010,306.477 215.200,306.367 215.200 C 306.257 215.200,305.372 216.010,304.400 217.000 M278.800 218.125 C 278.800 218.194,279.385 218.779,280.100 219.425 L 281.400 220.600 280.225 219.300 C 279.130 218.088,278.800 217.816,278.800 218.125 M328.985 220.100 L 327.000 222.200 329.100 220.215 C 331.051 218.371,331.383 218.000,331.085 218.000 C 331.022 218.000,330.077 218.945,328.985 220.100 M254.783 222.100 C 255.764 223.145,256.619 224.000,256.683 224.000 C 256.984 224.000,256.666 223.641,254.900 221.983 L 253.000 220.200 254.783 222.100 M299.578 222.300 L 298.200 223.800 299.700 222.422 C 301.096 221.138,301.384 220.800,301.078 220.800 C 301.012 220.800,300.337 221.475,299.578 222.300 M284.000 223.800 C 284.746 224.570,285.447 225.200,285.557 225.200 C 285.667 225.200,285.146 224.570,284.400 223.800 C 283.654 223.030,282.953 222.400,282.843 222.400 C 282.733 222.400,283.254 223.030,284.000 223.800 M339.988 225.500 L 337.400 228.200 340.190 225.600 C 341.724 224.170,343.059 222.955,343.156 222.900 C 343.254 222.845,343.163 222.800,342.955 222.800 C 342.747 222.800,341.412 224.015,339.988 225.500 M204.729 224.300 C 211.179 224.362,221.619 224.362,227.929 224.300 C 234.238 224.238,228.960 224.187,216.200 224.187 C 203.440 224.187,198.278 224.238,204.729 224.300 M192.960 230.600 C 192.961 233.900,193.022 235.197,193.098 233.482 C 193.173 231.767,193.172 229.067,193.097 227.482 C 193.021 225.897,192.959 227.300,192.960 230.600 M320.991 228.500 L 317.800 231.800 321.100 228.609 C 322.915 226.855,324.400 225.370,324.400 225.309 C 324.400 225.018,323.954 225.435,320.991 228.500 M295.375 226.900 L 294.200 228.200 295.500 227.025 C 296.215 226.379,296.800 225.794,296.800 225.725 C 296.800 225.416,296.470 225.688,295.375 226.900 M288.000 228.200 C 288.746 228.970,289.447 229.600,289.557 229.600 C 289.667 229.600,289.146 228.970,288.400 228.200 C 287.654 227.430,286.953 226.800,286.843 226.800 C 286.733 226.800,287.254 227.430,288.000 228.200 M261.000 228.800 C 261.859 229.680,262.652 230.400,262.762 230.400 C 262.872 230.400,262.259 229.680,261.400 228.800 C 260.541 227.920,259.748 227.200,259.638 227.200 C 259.528 227.200,260.141 227.920,261.000 228.800 M333.600 232.200 C 332.628 233.190,331.923 234.000,332.033 234.000 C 332.143 234.000,333.028 233.190,334.000 232.200 C 334.972 231.210,335.677 230.400,335.567 230.400 C 335.457 230.400,334.572 231.210,333.600 232.200 M267.000 235.200 C 268.083 236.300,269.060 237.200,269.170 237.200 C 269.280 237.200,268.483 236.300,267.400 235.200 C 266.317 234.100,265.340 233.200,265.230 233.200 C 265.120 233.200,265.917 234.100,267.000 235.200 M312.591 237.300 L 309.400 240.600 312.700 237.409 C 315.765 234.446,316.182 234.000,315.891 234.000 C 315.830 234.000,314.345 235.485,312.591 237.300 M215.592 237.098 L 237.985 237.207 238.104 246.004 L 238.223 254.800 238.212 245.900 L 238.200 237.000 215.700 236.995 L 193.200 236.990 215.592 237.098 M325.781 240.500 L 324.200 242.200 325.900 240.619 C 327.481 239.148,327.784 238.800,327.481 238.800 C 327.416 238.800,326.651 239.565,325.781 240.500 M274.200 242.800 C 275.506 244.120,276.665 245.200,276.775 245.200 C 276.885 245.200,275.906 244.120,274.600 242.800 C 273.294 241.480,272.135 240.400,272.025 240.400 C 271.915 240.400,272.894 241.480,274.200 242.800 M274.817 248.185 L 272.633 250.600 274.998 248.314 C 276.298 247.057,277.281 245.971,277.181 245.900 C 277.082 245.829,276.017 246.857,274.817 248.185 M325.400 250.400 C 326.706 251.720,327.865 252.800,327.975 252.800 C 328.085 252.800,327.106 251.720,325.800 250.400 C 324.494 249.080,323.335 248.000,323.225 248.000 C 323.115 248.000,324.094 249.080,325.400 250.400 M312.000 253.400 C 312.746 254.170,313.447 254.800,313.557 254.800 C 313.667 254.800,313.146 254.170,312.400 253.400 C 311.654 252.630,310.953 252.000,310.843 252.000 C 310.733 252.000,311.254 252.630,312.000 253.400 M267.787 255.700 L 265.400 258.200 267.900 255.813 C 269.275 254.499,270.400 253.374,270.400 253.313 C 270.400 253.017,270.005 253.378,267.787 255.700 M192.960 261.000 C 192.961 264.300,193.022 265.597,193.098 263.882 C 193.173 262.167,193.172 259.467,193.097 257.882 C 193.021 256.297,192.959 257.700,192.960 261.000 M331.400 256.800 C 332.259 257.680,333.052 258.400,333.162 258.400 C 333.272 258.400,332.659 257.680,331.800 256.800 C 330.941 255.920,330.148 255.200,330.038 255.200 C 329.928 255.200,330.541 255.920,331.400 256.800 M318.600 260.400 C 319.459 261.280,320.252 262.000,320.362 262.000 C 320.472 262.000,319.859 261.280,319.000 260.400 C 318.141 259.520,317.348 258.800,317.238 258.800 C 317.128 258.800,317.741 259.520,318.600 260.400 M337.200 263.000 C 338.395 264.210,339.463 265.200,339.573 265.200 C 339.683 265.200,338.795 264.210,337.600 263.000 C 336.405 261.790,335.337 260.800,335.227 260.800 C 335.117 260.800,336.005 261.790,337.200 263.000 M296.200 266.000 C 297.059 266.880,297.852 267.600,297.962 267.600 C 298.072 267.600,297.459 266.880,296.600 266.000 C 295.741 265.120,294.948 264.400,294.838 264.400 C 294.728 264.400,295.341 265.120,296.200 266.000 M325.000 267.200 C 326.306 268.520,327.465 269.600,327.575 269.600 C 327.685 269.600,326.706 268.520,325.400 267.200 C 324.094 265.880,322.935 264.800,322.825 264.800 C 322.715 264.800,323.694 265.880,325.000 267.200 M284.175 266.900 L 283.000 268.200 284.300 267.025 C 285.512 265.930,285.784 265.600,285.475 265.600 C 285.406 265.600,284.821 266.185,284.175 266.900 M204.729 267.500 C 211.179 267.562,221.619 267.562,227.929 267.500 C 234.238 267.438,228.960 267.387,216.200 267.387 C 203.440 267.387,198.278 267.438,204.729 267.500 M254.985 269.300 L 253.000 271.400 255.100 269.415 C 257.051 267.571,257.383 267.200,257.085 267.200 C 257.022 267.200,256.077 268.145,254.985 269.300 M300.200 270.400 C 301.059 271.280,301.852 272.000,301.962 272.000 C 302.072 272.000,301.459 271.280,300.600 270.400 C 299.741 269.520,298.948 268.800,298.838 268.800 C 298.728 268.800,299.341 269.520,300.200 270.400 M280.400 271.000 C 279.428 271.990,278.723 272.800,278.833 272.800 C 278.943 272.800,279.828 271.990,280.800 271.000 C 281.772 270.010,282.477 269.200,282.367 269.200 C 282.257 269.200,281.372 270.010,280.400 271.000 M332.000 274.600 C 333.417 276.030,334.667 277.200,334.777 277.200 C 334.887 277.200,333.817 276.030,332.400 274.600 C 330.983 273.170,329.733 272.000,329.623 272.000 C 329.513 272.000,330.583 273.170,332.000 274.600 M248.788 275.900 L 246.200 278.600 248.900 276.012 C 250.385 274.588,251.600 273.373,251.600 273.312 C 251.600 273.017,251.193 273.392,248.788 275.900 M302.800 273.325 C 302.800 273.394,303.385 273.979,304.100 274.625 L 305.400 275.800 304.225 274.500 C 303.130 273.288,302.800 273.016,302.800 273.325 M271.775 280.500 L 270.600 281.800 271.900 280.625 C 272.615 279.979,273.200 279.394,273.200 279.325 C 273.200 279.016,272.870 279.288,271.775 280.500 M294.800 282.600 C 295.546 283.370,296.247 284.000,296.357 284.000 C 296.467 284.000,295.946 283.370,295.200 282.600 C 294.454 281.830,293.753 281.200,293.643 281.200 C 293.533 281.200,294.054 281.830,294.800 282.600 M241.014 283.986 C 240.389 284.638,239.697 285.060,239.477 284.924 C 239.241 284.778,239.202 284.880,239.383 285.173 C 239.638 285.585,242.400 283.523,242.400 282.922 C 242.400 282.628,242.077 282.876,241.014 283.986 M278.985 290.500 L 277.000 292.600 279.100 290.615 C 280.255 289.523,281.200 288.578,281.200 288.515 C 281.200 288.217,280.829 288.549,278.985 290.500 M301.600 290.125 C 301.600 290.194,302.185 290.779,302.900 291.425 L 304.200 292.600 303.025 291.300 C 301.930 290.088,301.600 289.816,301.600 290.125 M56.800 342.900 C 56.800 343.065,121.240 343.200,200.000 343.200 C 278.760 343.200,343.200 343.065,343.200 342.900 C 343.200 342.735,278.760 342.600,200.000 342.600 C 121.240 342.600,56.800 342.735,56.800 342.900 " stroke="none" fill="#5596dc" fill-rule="evenodd"></path><path id="path2" d="M56.800 199.800 L 56.800 342.400 200.000 342.400 L 343.200 342.400 343.200 319.800 L 343.200 297.200 325.653 297.200 L 308.107 297.200 305.108 293.900 C 303.459 292.085,301.410 289.811,300.555 288.846 C 299.700 287.881,298.460 286.522,297.800 285.826 C 297.140 285.130,295.260 283.066,293.621 281.240 L 290.642 277.919 289.021 279.708 C 288.130 280.692,286.050 282.996,284.400 284.829 C 282.750 286.661,279.528 290.195,277.241 292.681 L 273.081 297.203 216.041 297.101 L 159.000 297.000 158.898 251.504 L 158.797 206.008 140.698 205.904 C 119.932 205.785,121.916 206.298,124.074 201.600 C 126.774 195.720,126.600 196.111,128.786 191.000 C 129.372 189.630,130.671 186.716,131.997 183.800 C 132.698 182.260,133.718 179.920,134.266 178.600 C 134.813 177.280,135.592 175.480,135.997 174.600 C 136.892 172.654,139.113 167.701,139.585 166.600 C 139.774 166.160,140.289 164.990,140.730 164.000 C 141.171 163.010,141.917 161.300,142.387 160.200 C 143.353 157.944,143.497 157.619,145.133 154.000 C 145.779 152.570,147.136 149.490,148.148 147.156 C 149.161 144.822,150.260 142.392,150.592 141.756 C 150.924 141.120,151.196 140.472,151.198 140.315 C 151.199 140.159,151.805 138.719,152.545 137.115 C 153.285 135.512,154.203 133.480,154.585 132.600 C 155.354 130.828,156.125 129.120,157.966 125.117 C 158.645 123.641,159.200 122.340,159.200 122.225 C 159.200 122.111,159.840 120.619,160.622 118.909 C 161.404 117.199,162.201 115.440,162.393 115.000 C 162.586 114.560,163.386 112.789,164.172 111.064 C 164.957 109.340,165.600 107.845,165.600 107.742 C 165.600 107.640,165.933 106.801,166.341 105.878 C 166.749 104.955,167.194 103.883,167.330 103.497 C 167.681 102.499,211.897 102.600,212.437 103.600 C 212.616 103.930,213.028 104.830,213.352 105.600 C 213.677 106.370,214.585 108.399,215.371 110.109 C 216.157 111.819,216.800 113.288,216.800 113.373 C 216.800 113.459,217.448 114.940,218.241 116.664 C 219.600 119.624,220.842 122.397,221.615 124.200 C 221.803 124.640,222.483 126.170,223.126 127.600 C 223.768 129.030,224.799 131.370,225.416 132.800 C 226.034 134.230,226.688 135.571,226.870 135.780 C 227.051 135.989,227.200 128.654,227.200 119.480 L 227.200 102.800 254.595 102.800 L 281.989 102.800 282.531 104.100 C 282.829 104.815,283.581 106.930,284.204 108.800 C 284.826 110.670,285.464 112.380,285.621 112.600 C 285.779 112.820,286.041 113.624,286.205 114.387 C 286.368 115.150,286.658 116.050,286.848 116.387 C 287.206 117.021,287.560 118.015,289.673 124.314 C 291.170 128.776,291.294 128.771,292.861 124.195 C 293.538 122.218,294.231 120.420,294.400 120.200 C 294.569 119.980,294.835 119.203,294.992 118.473 C 295.148 117.743,295.527 116.663,295.835 116.073 C 296.143 115.483,296.396 114.757,296.398 114.460 C 296.399 114.164,296.650 113.354,296.954 112.660 C 297.259 111.967,297.910 110.230,298.400 108.800 C 298.890 107.370,299.541 105.633,299.846 104.940 C 300.150 104.246,300.400 103.481,300.400 103.240 C 300.400 102.926,306.516 102.800,321.800 102.800 L 343.200 102.800 343.200 80.000 L 343.200 57.200 200.000 57.200 L 56.800 57.200 56.800 199.800 M175.780 115.263 C 175.628 115.743,174.876 117.500,174.111 119.168 C 172.791 122.041,171.546 124.825,170.785 126.600 C 170.597 127.040,169.912 128.570,169.264 130.000 C 168.616 131.430,167.632 133.680,167.076 135.000 C 166.520 136.320,165.782 137.940,165.435 138.600 C 165.089 139.260,164.804 139.931,164.802 140.091 C 164.801 140.251,164.157 141.781,163.371 143.491 C 162.585 145.201,161.668 147.230,161.332 148.000 C 160.996 148.770,160.362 150.210,159.924 151.200 C 159.486 152.190,158.974 153.360,158.787 153.800 C 158.599 154.240,157.965 155.680,157.377 157.000 C 156.790 158.320,155.409 161.470,154.308 164.000 C 153.208 166.530,151.779 169.770,151.133 171.200 C 150.486 172.630,149.803 174.160,149.615 174.600 C 149.426 175.040,148.914 176.210,148.476 177.200 C 148.038 178.190,147.406 179.630,147.072 180.400 C 146.738 181.170,145.894 183.060,145.197 184.600 C 144.500 186.140,143.479 188.480,142.928 189.800 C 142.377 191.120,141.762 192.371,141.563 192.580 C 140.297 193.906,141.042 194.000,152.822 194.000 L 164.445 194.000 165.248 192.100 C 165.690 191.055,166.208 189.840,166.399 189.400 C 167.510 186.840,168.058 185.533,169.000 183.200 C 169.577 181.770,170.318 180.013,170.646 179.296 L 171.241 177.992 189.677 178.096 C 205.578 178.186,208.158 178.282,208.443 178.800 C 208.624 179.130,209.150 180.300,209.611 181.400 C 210.551 183.644,211.129 184.959,212.357 187.644 C 212.821 188.658,213.200 189.783,213.200 190.144 C 213.200 190.505,213.362 190.800,213.560 190.800 C 213.758 190.800,214.080 191.475,214.275 192.300 L 214.630 193.800 237.715 193.903 L 260.800 194.006 260.800 166.318 C 260.800 137.603,260.887 136.181,262.333 141.200 C 262.555 141.970,263.124 143.590,263.598 144.800 C 264.072 146.010,264.624 147.540,264.824 148.200 C 265.024 148.860,265.347 149.760,265.540 150.200 C 265.734 150.640,266.290 152.080,266.774 153.400 C 267.259 154.720,267.913 156.391,268.228 157.114 C 268.543 157.836,268.800 158.619,268.800 158.853 C 268.800 159.087,269.050 159.846,269.354 160.540 C 269.659 161.233,270.316 162.970,270.813 164.400 C 271.310 165.830,271.942 167.540,272.217 168.200 C 272.491 168.860,273.745 172.280,275.003 175.800 C 276.261 179.320,277.540 182.767,277.845 183.460 C 278.150 184.154,278.400 184.973,278.400 185.280 C 278.400 185.588,278.563 186.011,278.763 186.220 C 278.962 186.429,279.315 187.230,279.546 188.000 C 279.777 188.770,280.321 190.390,280.755 191.600 L 281.544 193.800 290.958 193.907 L 300.372 194.014 300.938 192.907 C 301.249 192.298,301.629 191.217,301.783 190.505 C 301.936 189.792,302.228 189.106,302.431 188.981 C 302.634 188.855,302.800 188.476,302.800 188.137 C 302.800 187.798,303.061 186.954,303.379 186.260 C 303.698 185.567,304.343 183.830,304.813 182.400 C 305.283 180.970,305.903 179.260,306.192 178.600 C 306.480 177.940,307.745 174.520,309.003 171.000 C 310.261 167.480,311.540 164.033,311.845 163.340 C 312.150 162.646,312.400 161.802,312.400 161.463 C 312.400 161.124,312.560 160.748,312.756 160.627 C 312.951 160.506,313.230 159.911,313.374 159.304 C 313.613 158.304,314.789 155.035,315.643 153.000 C 316.067 151.990,317.130 148.972,317.617 147.400 C 317.821 146.740,318.153 145.840,318.355 145.400 C 318.557 144.960,319.127 143.430,319.623 142.000 C 320.119 140.570,320.676 139.229,320.862 139.020 C 321.048 138.811,321.200 151.096,321.200 166.320 L 321.200 194.000 332.200 194.000 L 343.200 194.000 343.200 154.200 L 343.200 114.400 326.232 114.400 L 309.264 114.400 308.978 115.698 C 308.822 116.413,308.460 117.538,308.176 118.198 C 307.891 118.859,306.733 122.010,305.603 125.200 C 304.472 128.390,303.304 131.630,303.006 132.400 C 302.709 133.170,301.444 136.680,300.194 140.200 C 298.945 143.720,297.776 146.960,297.597 147.400 C 297.418 147.840,296.517 150.360,295.593 153.000 C 294.670 155.640,293.664 158.367,293.357 159.060 C 293.051 159.754,292.800 160.528,292.800 160.780 C 292.800 161.446,291.634 163.600,291.273 163.600 C 291.105 163.600,290.280 161.665,289.441 159.300 C 288.602 156.935,287.761 154.640,287.571 154.200 C 287.382 153.760,286.756 152.050,286.180 150.400 C 285.605 148.750,284.422 145.420,283.553 143.000 C 282.683 140.580,281.521 137.250,280.970 135.600 C 280.419 133.950,279.705 132.033,279.384 131.340 C 279.063 130.646,278.800 129.879,278.800 129.634 C 278.800 129.389,278.633 128.877,278.429 128.495 C 278.225 128.113,277.306 125.640,276.386 123.000 C 275.467 120.360,274.464 117.633,274.157 116.940 C 273.851 116.246,273.600 115.391,273.600 115.040 C 273.600 114.464,271.912 114.400,256.600 114.400 L 239.600 114.400 239.600 154.000 C 239.600 175.780,239.450 193.600,239.268 193.600 C 238.874 193.600,238.566 192.983,235.868 186.800 C 235.532 186.030,234.639 184.050,233.884 182.400 C 233.128 180.750,232.373 178.950,232.206 178.400 C 232.039 177.850,231.763 177.220,231.593 177.000 C 231.423 176.780,230.795 175.430,230.199 174.000 C 229.602 172.570,228.584 170.230,227.936 168.800 C 227.288 167.370,226.603 165.840,226.415 165.400 C 226.226 164.960,225.711 163.790,225.270 162.800 C 224.829 161.810,224.078 160.100,223.600 159.000 C 222.607 156.714,221.696 154.666,220.399 151.800 C 219.900 150.700,218.909 148.450,218.196 146.800 C 217.482 145.150,216.416 142.720,215.826 141.400 C 215.237 140.080,214.601 138.640,214.413 138.200 C 214.226 137.760,213.711 136.590,213.270 135.600 C 212.829 134.610,212.082 132.900,211.610 131.800 C 211.138 130.700,210.504 129.260,210.201 128.600 C 209.265 126.562,208.126 123.987,206.043 119.200 L 204.041 114.600 190.049 114.495 L 176.057 114.390 175.780 115.263 M190.556 135.700 C 190.883 136.415,191.619 138.170,192.193 139.600 C 192.767 141.030,193.396 142.560,193.591 143.000 C 194.398 144.818,195.208 146.744,196.200 149.200 C 197.142 151.533,197.690 152.840,198.801 155.400 C 200.374 159.026,200.764 160.135,200.573 160.443 C 200.174 161.089,179.210 160.891,178.960 160.239 C 178.773 159.753,179.165 158.641,180.804 155.000 C 181.002 154.560,181.630 153.030,182.200 151.600 C 182.770 150.170,183.400 148.640,183.600 148.200 C 183.800 147.760,184.430 146.230,185.000 144.800 C 185.570 143.370,186.198 141.840,186.396 141.400 C 186.938 140.196,188.208 137.167,188.785 135.700 C 189.067 134.985,189.447 134.400,189.630 134.400 C 189.813 134.400,190.230 134.985,190.556 135.700 M171.600 245.800 L 171.600 285.600 205.500 285.600 L 239.400 285.601 239.285 276.600 L 239.171 267.600 216.193 267.600 L 193.215 267.600 192.992 266.700 C 192.870 266.205,192.821 263.370,192.885 260.400 L 193.000 255.000 215.500 254.897 L 238.000 254.793 238.000 245.997 L 238.000 237.200 215.643 237.200 C 195.625 237.200,193.260 237.134,193.043 236.567 C 192.727 235.743,192.727 225.457,193.043 224.633 C 193.260 224.066,195.677 224.000,216.228 224.000 L 239.171 224.000 239.285 215.000 L 239.400 205.999 205.500 206.000 L 171.600 206.000 171.600 245.800 M242.031 208.300 C 245.674 212.203,248.538 215.253,250.000 216.787 C 251.170 218.015,258.569 225.837,264.000 231.588 C 264.770 232.403,267.920 235.732,271.000 238.986 C 274.080 242.240,276.753 245.165,276.939 245.486 C 277.188 245.914,276.334 247.047,273.733 249.735 C 271.783 251.751,267.580 256.177,264.394 259.570 C 251.445 273.360,250.935 273.901,242.292 283.000 L 240.013 285.400 253.506 285.510 L 267.000 285.621 269.000 283.508 C 271.355 281.020,275.703 276.276,277.389 274.355 C 278.796 272.752,286.666 264.173,289.091 261.600 L 290.787 259.800 292.507 261.600 C 293.453 262.590,296.741 266.189,299.813 269.597 C 306.386 276.887,305.424 275.823,309.400 280.201 C 311.160 282.139,312.981 284.147,313.446 284.662 L 314.292 285.600 328.166 285.600 C 340.256 285.600,341.997 285.524,341.711 285.012 C 341.530 284.688,338.776 281.675,335.591 278.316 C 332.406 274.956,328.180 270.492,326.200 268.395 C 324.220 266.299,320.890 262.779,318.800 260.575 C 309.746 251.024,305.409 246.359,305.144 245.886 C 304.962 245.561,307.375 242.739,311.897 237.990 C 327.513 221.587,333.201 215.632,337.400 211.288 C 339.820 208.785,341.860 206.571,341.933 206.368 C 342.013 206.149,336.586 206.000,328.484 206.000 L 314.901 206.000 311.951 209.139 C 310.328 210.866,308.302 213.071,307.449 214.039 C 306.596 215.008,304.796 216.977,303.449 218.416 C 302.102 219.854,299.470 222.715,297.600 224.773 C 295.730 226.830,293.538 229.231,292.729 230.108 L 291.257 231.703 290.329 230.700 C 289.161 229.438,285.394 225.289,275.620 214.500 L 267.919 206.000 253.902 206.000 L 239.884 206.000 242.031 208.300 M338.962 226.911 C 337.003 228.952,332.520 233.665,329.000 237.385 C 325.480 241.105,322.270 244.489,321.868 244.906 C 321.155 245.645,321.218 245.750,324.293 248.932 C 326.029 250.730,328.712 253.550,330.255 255.200 C 331.798 256.850,334.419 259.640,336.079 261.400 C 337.739 263.160,339.868 265.455,340.810 266.500 C 341.752 267.545,342.675 268.400,342.862 268.400 C 343.048 268.400,343.200 258.230,343.200 245.800 C 343.200 233.370,343.048 223.200,342.862 223.200 C 342.676 223.200,340.921 224.870,338.962 226.911 " stroke="none" fill="#046ccc" fill-rule="evenodd"></path><path id="path3" d="M239.200 153.680 C 239.090 175.394,239.136 193.024,239.302 192.858 C 239.468 192.692,239.558 174.926,239.502 153.378 L 239.400 114.200 239.200 153.680 M132.127 205.900 C 137.147 205.963,145.247 205.963,150.127 205.900 C 155.007 205.836,150.900 205.784,141.000 205.784 C 131.100 205.784,127.107 205.836,132.127 205.900 M171.384 206.100 C 171.280 206.375,171.241 224.420,171.299 246.200 L 171.404 285.800 171.502 245.902 L 171.600 206.003 219.900 205.900 L 268.200 205.797 219.887 205.698 C 181.533 205.620,171.536 205.703,171.384 206.100 M328.557 205.900 L 342.514 206.010 341.757 206.878 L 341.000 207.745 342.057 206.973 C 343.803 205.696,342.861 205.608,328.400 205.701 L 314.600 205.789 328.557 205.900 M239.370 215.400 C 239.371 220.240,239.429 222.165,239.499 219.678 C 239.569 217.191,239.569 213.231,239.498 210.878 C 239.428 208.525,239.370 210.560,239.370 215.400 M244.000 210.925 C 244.000 210.994,244.585 211.579,245.300 212.225 L 246.600 213.400 245.425 212.100 C 244.330 210.888,244.000 210.616,244.000 210.925 M262.800 230.925 C 262.800 230.994,263.385 231.579,264.100 232.225 L 265.400 233.400 264.225 232.100 C 263.130 230.888,262.800 230.616,262.800 230.925 M316.975 232.900 L 315.800 234.200 317.100 233.025 C 317.815 232.379,318.400 231.794,318.400 231.725 C 318.400 231.416,318.070 231.688,316.975 232.900 M306.800 247.725 C 306.800 247.794,307.385 248.379,308.100 249.025 L 309.400 250.200 308.225 248.900 C 307.130 247.688,306.800 247.416,306.800 247.725 M239.370 276.200 C 239.371 281.040,239.429 282.965,239.499 280.478 C 239.569 277.991,239.569 274.031,239.498 271.678 C 239.428 269.325,239.370 271.360,239.370 276.200 M128.500 342.700 C 167.825 342.756,232.175 342.756,271.500 342.700 C 310.825 342.644,278.650 342.598,200.000 342.598 C 121.350 342.598,89.175 342.644,128.500 342.700 " stroke="none" fill="#74ace4" fill-rule="evenodd"></path><path id="path4" d="M175.423 114.889 C 175.080 115.378,174.806 115.963,174.814 116.189 C 174.822 116.415,175.077 116.150,175.382 115.600 L 175.935 114.600 190.067 114.392 L 204.200 114.185 190.123 114.092 L 176.045 114.000 175.423 114.889 M245.400 114.287 C 260.658 114.567,273.907 114.573,273.739 114.300 C 273.636 114.135,265.868 114.040,256.476 114.089 C 247.084 114.138,242.100 114.227,245.400 114.287 M308.782 114.834 C 308.536 115.293,308.423 115.757,308.531 115.864 C 308.639 115.972,308.845 115.689,308.989 115.234 C 309.248 114.419,309.471 114.407,326.326 114.300 L 343.400 114.191 326.314 114.096 C 309.356 114.001,309.225 114.006,308.782 114.834 M260.989 167.600 C 260.989 182.450,261.039 188.525,261.100 181.100 C 261.161 173.675,261.161 161.525,261.100 154.100 C 261.039 146.675,260.989 152.750,260.989 167.600 M163.265 142.217 C 162.595 143.688,162.723 144.002,163.447 142.665 C 163.786 142.040,163.988 141.454,163.896 141.363 C 163.805 141.271,163.521 141.656,163.265 142.217 M179.206 159.700 C 179.200 160.440,199.686 160.831,200.139 160.100 C 200.241 159.935,195.721 159.851,190.094 159.913 C 182.104 160.002,179.792 159.914,179.538 159.513 C 179.298 159.136,179.211 159.185,179.206 159.700 M140.465 165.017 C 139.795 166.488,139.923 166.802,140.647 165.465 C 140.986 164.840,141.188 164.254,141.096 164.163 C 141.005 164.071,140.721 164.456,140.465 165.017 M233.228 180.200 C 233.228 180.420,233.486 181.050,233.800 181.600 C 234.114 182.150,234.372 182.420,234.372 182.200 C 234.372 181.980,234.114 181.350,233.800 180.800 C 233.486 180.250,233.228 179.980,233.228 180.200 M159.200 251.320 L 159.400 297.000 159.502 251.622 C 159.558 226.664,159.468 206.108,159.302 205.942 C 159.136 205.776,159.090 226.196,159.200 251.320 M268.000 205.725 C 268.000 205.794,268.585 206.379,269.300 207.025 L 270.600 208.200 269.425 206.900 C 268.330 205.688,268.000 205.416,268.000 205.725 M313.178 207.100 L 311.800 208.600 313.300 207.222 C 314.696 205.938,314.984 205.600,314.678 205.600 C 314.612 205.600,313.937 206.275,313.178 207.100 M241.800 208.800 C 242.883 209.900,243.860 210.800,243.970 210.800 C 244.080 210.800,243.283 209.900,242.200 208.800 C 241.117 207.700,240.140 206.800,240.030 206.800 C 239.920 206.800,240.717 207.700,241.800 208.800 M272.800 211.000 C 273.546 211.770,274.247 212.400,274.357 212.400 C 274.467 212.400,273.946 211.770,273.200 211.000 C 272.454 210.230,271.753 209.600,271.643 209.600 C 271.533 209.600,272.054 210.230,272.800 211.000 M337.600 211.400 C 336.628 212.390,335.923 213.200,336.033 213.200 C 336.143 213.200,337.028 212.390,338.000 211.400 C 338.972 210.410,339.677 209.600,339.567 209.600 C 339.457 209.600,338.572 210.410,337.600 211.400 M308.800 211.800 C 307.828 212.790,307.123 213.600,307.233 213.600 C 307.343 213.600,308.228 212.790,309.200 211.800 C 310.172 210.810,310.877 210.000,310.767 210.000 C 310.657 210.000,309.772 210.810,308.800 211.800 M247.800 215.200 C 249.328 216.740,250.669 218.000,250.779 218.000 C 250.889 218.000,249.728 216.740,248.200 215.200 C 246.672 213.660,245.331 212.400,245.221 212.400 C 245.111 212.400,246.272 213.660,247.800 215.200 M274.800 213.325 C 274.800 213.394,275.385 213.979,276.100 214.625 L 277.400 215.800 276.225 214.500 C 275.130 213.288,274.800 213.016,274.800 213.325 M280.200 219.200 C 281.059 220.080,281.852 220.800,281.962 220.800 C 282.072 220.800,281.459 220.080,280.600 219.200 C 279.741 218.320,278.948 217.600,278.838 217.600 C 278.728 217.600,279.341 218.320,280.200 219.200 M328.581 220.900 L 327.000 222.600 328.700 221.019 C 330.281 219.548,330.584 219.200,330.281 219.200 C 330.216 219.200,329.451 219.965,328.581 220.900 M254.200 222.000 C 255.059 222.880,255.852 223.600,255.962 223.600 C 256.072 223.600,255.459 222.880,254.600 222.000 C 253.741 221.120,252.948 220.400,252.838 220.400 C 252.728 220.400,253.341 221.120,254.200 222.000 M284.200 223.600 C 285.059 224.480,285.852 225.200,285.962 225.200 C 286.072 225.200,285.459 224.480,284.600 223.600 C 283.741 222.720,282.948 222.000,282.838 222.000 C 282.728 222.000,283.341 222.720,284.200 223.600 M341.178 223.900 L 339.800 225.400 341.396 224.000 C 342.273 223.230,343.068 222.555,343.162 222.500 C 343.256 222.445,343.159 222.400,342.945 222.400 C 342.732 222.400,341.937 223.075,341.178 223.900 M216.200 224.400 L 193.000 224.610 216.076 224.705 C 231.133 224.767,239.239 224.661,239.400 224.400 C 239.536 224.180,239.592 224.043,239.524 224.095 C 239.456 224.147,228.960 224.285,216.200 224.400 M295.978 225.900 L 294.600 227.400 296.100 226.022 C 297.496 224.738,297.784 224.400,297.478 224.400 C 297.412 224.400,296.737 225.075,295.978 225.900 M321.391 228.500 L 318.200 231.800 321.500 228.609 C 324.565 225.646,324.982 225.200,324.691 225.200 C 324.630 225.200,323.145 226.685,321.391 228.500 M288.200 228.000 C 289.059 228.880,289.852 229.600,289.962 229.600 C 290.072 229.600,289.459 228.880,288.600 228.000 C 287.741 227.120,286.948 226.400,286.838 226.400 C 286.728 226.400,287.341 227.120,288.200 228.000 M261.200 229.400 C 261.946 230.170,262.647 230.800,262.757 230.800 C 262.867 230.800,262.346 230.170,261.600 229.400 C 260.854 228.630,260.153 228.000,260.043 228.000 C 259.933 228.000,260.454 228.630,261.200 229.400 M333.781 231.700 L 332.200 233.400 333.900 231.819 C 335.481 230.348,335.784 230.000,335.481 230.000 C 335.416 230.000,334.651 230.765,333.781 231.700 M312.400 237.800 C 310.761 239.450,309.510 240.800,309.620 240.800 C 309.730 240.800,311.161 239.450,312.800 237.800 C 314.439 236.150,315.690 234.800,315.580 234.800 C 315.470 234.800,314.039 236.150,312.400 237.800 M268.000 236.600 C 268.746 237.370,269.447 238.000,269.557 238.000 C 269.667 238.000,269.146 237.370,268.400 236.600 C 267.654 235.830,266.953 235.200,266.843 235.200 C 266.733 235.200,267.254 235.830,268.000 236.600 M204.300 236.700 C 210.515 236.762,220.685 236.762,226.900 236.700 C 233.115 236.638,228.030 236.587,215.600 236.587 C 203.170 236.587,198.085 236.638,204.300 236.700 M325.785 240.100 L 323.800 242.200 325.900 240.215 C 327.851 238.371,328.183 238.000,327.885 238.000 C 327.822 238.000,326.877 238.945,325.785 240.100 M274.100 243.012 C 276.887 245.934,276.877 245.672,274.300 248.387 L 272.200 250.600 274.500 248.414 C 277.332 245.722,277.338 245.889,274.300 242.987 L 271.800 240.600 274.100 243.012 M325.200 250.600 C 326.395 251.810,327.463 252.800,327.573 252.800 C 327.683 252.800,326.795 251.810,325.600 250.600 C 324.405 249.390,323.337 248.400,323.227 248.400 C 323.117 248.400,324.005 249.390,325.200 250.600 M311.800 252.800 C 312.659 253.680,313.452 254.400,313.562 254.400 C 313.672 254.400,313.059 253.680,312.200 252.800 C 311.341 251.920,310.548 251.200,310.438 251.200 C 310.328 251.200,310.941 251.920,311.800 252.800 M267.588 255.500 L 265.000 258.200 267.700 255.612 C 269.185 254.188,270.400 252.973,270.400 252.912 C 270.400 252.617,269.993 252.992,267.588 255.500 M331.800 257.600 C 333.106 258.920,334.265 260.000,334.375 260.000 C 334.485 260.000,333.506 258.920,332.200 257.600 C 330.894 256.280,329.735 255.200,329.625 255.200 C 329.515 255.200,330.494 256.280,331.800 257.600 M316.000 257.325 C 316.000 257.394,316.585 257.979,317.300 258.625 L 318.600 259.800 317.425 258.500 C 316.330 257.288,316.000 257.016,316.000 257.325 M261.381 262.100 L 259.800 263.800 261.500 262.219 C 262.435 261.349,263.200 260.584,263.200 260.519 C 263.200 260.216,262.852 260.519,261.381 262.100 M288.585 262.500 L 286.600 264.600 288.699 262.616 L 290.798 260.632 292.699 262.416 L 294.600 264.200 292.817 262.300 C 290.642 259.983,290.979 259.967,288.585 262.500 M337.200 263.400 C 338.617 264.830,339.867 266.000,339.977 266.000 C 340.087 266.000,339.017 264.830,337.600 263.400 C 336.183 261.970,334.933 260.800,334.823 260.800 C 334.713 260.800,335.783 261.970,337.200 263.400 M325.000 266.800 C 326.306 268.120,327.465 269.200,327.575 269.200 C 327.685 269.200,326.706 268.120,325.400 266.800 C 324.094 265.480,322.935 264.400,322.825 264.400 C 322.715 264.400,323.694 265.480,325.000 266.800 M296.000 266.200 C 296.746 266.970,297.447 267.600,297.557 267.600 C 297.667 267.600,297.146 266.970,296.400 266.200 C 295.654 265.430,294.953 264.800,294.843 264.800 C 294.733 264.800,295.254 265.430,296.000 266.200 M284.778 266.700 L 283.400 268.200 284.900 266.822 C 286.296 265.538,286.584 265.200,286.278 265.200 C 286.212 265.200,285.537 265.875,284.778 266.700 M201.200 267.091 C 222.338 267.368,239.507 267.372,239.338 267.100 C 239.236 266.935,228.768 266.841,216.076 266.891 C 203.384 266.942,196.690 267.031,201.200 267.091 M254.981 268.900 L 253.400 270.600 255.100 269.019 C 256.681 267.548,256.984 267.200,256.681 267.200 C 256.616 267.200,255.851 267.965,254.981 268.900 M298.800 269.325 C 298.800 269.394,299.385 269.979,300.100 270.625 L 301.400 271.800 300.225 270.500 C 299.130 269.288,298.800 269.016,298.800 269.325 M279.775 272.100 L 278.600 273.400 279.900 272.225 C 280.615 271.579,281.200 270.994,281.200 270.925 C 281.200 270.616,280.870 270.888,279.775 272.100 M332.188 274.400 C 336.500 279.025,336.722 279.239,335.300 277.400 C 334.619 276.520,332.927 274.720,331.540 273.400 C 329.324 271.291,329.403 271.413,332.188 274.400 M276.400 275.800 C 275.428 276.790,274.723 277.600,274.833 277.600 C 274.943 277.600,275.828 276.790,276.800 275.800 C 277.772 274.810,278.477 274.000,278.367 274.000 C 278.257 274.000,277.372 274.810,276.400 275.800 M247.381 276.900 L 245.800 278.600 247.500 277.019 C 248.435 276.149,249.200 275.384,249.200 275.319 C 249.200 275.016,248.852 275.319,247.381 276.900 M308.000 279.400 C 308.746 280.170,309.447 280.800,309.557 280.800 C 309.667 280.800,309.146 280.170,308.400 279.400 C 307.654 278.630,306.953 278.000,306.843 278.000 C 306.733 278.000,307.254 278.630,308.000 279.400 M272.181 280.500 L 270.600 282.200 272.300 280.619 C 273.881 279.148,274.184 278.800,273.881 278.800 C 273.816 278.800,273.051 279.565,272.181 280.500 M338.200 280.800 C 339.059 281.680,339.852 282.400,339.962 282.400 C 340.072 282.400,339.459 281.680,338.600 280.800 C 337.741 279.920,336.948 279.200,336.838 279.200 C 336.728 279.200,337.341 279.920,338.200 280.800 M286.981 281.300 L 285.400 283.000 287.100 281.419 C 288.035 280.549,288.800 279.784,288.800 279.719 C 288.800 279.416,288.452 279.719,286.981 281.300 M241.787 282.900 L 239.400 285.400 241.900 283.013 C 243.275 281.699,244.400 280.574,244.400 280.513 C 244.400 280.217,244.005 280.578,241.787 282.900 M295.000 282.400 C 295.859 283.280,296.652 284.000,296.762 284.000 C 296.872 284.000,296.259 283.280,295.400 282.400 C 294.541 281.520,293.748 280.800,293.638 280.800 C 293.528 280.800,294.141 281.520,295.000 282.400 M310.800 282.525 C 310.800 282.594,311.385 283.179,312.100 283.825 L 313.400 285.000 312.225 283.700 C 311.130 282.488,310.800 282.216,310.800 282.525 M268.201 284.798 C 267.488 285.587,266.872 285.598,219.239 285.700 L 171.000 285.803 219.230 285.902 L 267.461 286.000 268.400 285.000 C 268.917 284.450,269.246 284.000,269.132 284.000 C 269.017 284.000,268.599 284.359,268.201 284.798 M282.778 285.900 L 281.400 287.400 282.900 286.022 C 284.296 284.738,284.584 284.400,284.278 284.400 C 284.212 284.400,283.537 285.075,282.778 285.900 M299.000 286.800 C 299.859 287.680,300.652 288.400,300.762 288.400 C 300.872 288.400,300.259 287.680,299.400 286.800 C 298.541 285.920,297.748 285.200,297.638 285.200 C 297.528 285.200,298.141 285.920,299.000 286.800 M321.326 285.900 C 325.466 285.965,332.126 285.965,336.126 285.899 C 340.127 285.834,336.740 285.781,328.600 285.781 C 320.460 285.781,317.187 285.834,321.326 285.900 M274.575 294.900 L 273.400 296.200 274.700 295.025 C 275.415 294.379,276.000 293.794,276.000 293.725 C 276.000 293.416,275.670 293.688,274.575 294.900 " stroke="none" fill="#84b4e4" fill-rule="evenodd"></path></g></svg>