<?xml version="1.0" standalone="no"?>
<!DOCTYPE svg PUBLIC "-//W3C//DTD SVG 20010904//EN"
 "http://www.w3.org/TR/2001/REC-SVG-20010904/DTD/svg10.dtd">
<svg version="1.0" xmlns="http://www.w3.org/2000/svg"
 width="1600.000000pt" height="1600.000000pt" viewBox="0 0 1600.000000 1600.000000"
 preserveAspectRatio="xMidYMid meet">
<metadata>
Created by potrace 1.16, written by Peter Selinger 2001-2019
</metadata>
<g transform="translate(0.000000,1600.000000) scale(0.100000,-0.100000)"
fill="#000000" stroke="none">
<path d="M2035 13453 c-636 -82 -1165 -534 -1341 -1143 -63 -219 -57 97 -61
-3855 -3 -2580 -1 -3631 7 -3710 21 -213 65 -365 161 -560 216 -440 619 -749
1117 -858 93 -20 129 -21 859 -24 l762 -4 37 -62 c305 -508 714 -977 1179
-1352 1283 -1038 2989 -1383 4580 -928 295 84 521 171 810 312 253 123 373
192 605 347 621 414 1174 993 1539 1612 l43 72 712 0 c748 0 810 3 984 46 392
97 747 352 965 695 99 155 189 383 224 569 17 91 18 268 18 3780 l0 3685 -23
102 c-69 315 -204 570 -415 790 -254 263 -563 425 -912 478 -88 13 -794 15
-5960 13 -3223 0 -5873 -3 -5890 -5z m11860 -661 c279 -78 501 -268 622 -528
71 -155 76 -194 80 -631 l4 -393 -6666 0 -6667 0 5 388 c4 351 6 394 25 467
44 170 116 303 229 424 143 154 338 258 553 294 14 2 2660 4 5880 3 l5855 -1
80 -23z m-5465 -2536 c1250 -149 2334 -772 3078 -1771 l75 -100 -3245 -3
-3245 -2 -65 -78 c-125 -149 -282 -371 -357 -504 l-33 -58 3659 0 3659 0 58
-136 c245 -576 358 -1126 360 -1754 1 -500 -64 -928 -211 -1385 -91 -282 -237
-616 -352 -802 l-26 -43 -3467 -2 -3467 -3 57 -76 c104 -139 205 -253 359
-406 l153 -153 2956 0 2956 0 -54 -62 c-229 -265 -546 -546 -842 -746 -561
-381 -1186 -626 -1839 -722 -252 -37 -361 -44 -662 -44 -291 0 -407 7 -635 40
-1087 156 -2062 697 -2776 1539 -184 217 -458 626 -493 737 -7 20 -23 53 -37
73 -59 87 -175 352 -252 576 -121 352 -190 672 -227 1054 -20 209 -20 621 1
836 82 869 411 1680 959 2364 130 163 372 416 527 552 460 404 998 708 1586
897 281 90 626 161 902 185 69 6 141 13 160 15 89 10 653 -3 780 -18z m-4011
-755 c-1059 -1020 -1622 -2417 -1558 -3871 25 -585 139 -1135 338 -1638 l21
-53 -577 3 c-555 4 -581 5 -654 25 -394 110 -660 415 -708 808 -8 63 -11 806
-11 2483 l0 2392 1652 0 1651 0 -154 -149z m10181 -2270 c0 -2621 3 -2492 -53
-2656 -92 -270 -312 -490 -582 -582 -145 -49 -198 -53 -771 -53 -340 0 -534 4
-534 10 0 5 13 42 29 82 51 129 138 408 180 578 290 1170 154 2416 -379 3481
-264 527 -541 911 -971 1342 l-217 217 1649 0 1649 0 0 -2419z"/>
<path d="M5810 6799 c-453 -55 -748 -371 -811 -865 -16 -132 -6 -392 20 -504
40 -173 97 -298 189 -419 76 -99 166 -172 287 -232 160 -79 226 -93 445 -93
215 0 282 14 435 87 244 118 397 329 440 605 l7 42 -212 -2 -212 -3 -18 -57
c-46 -150 -158 -250 -319 -284 -292 -62 -517 92 -602 411 -27 99 -32 358 -10
470 39 204 138 347 289 422 64 32 83 37 171 41 158 7 258 -26 358 -120 56 -54
109 -147 119 -210 l7 -38 214 0 215 0 -7 43 c-55 356 -304 615 -665 692 -89
19 -249 26 -340 14z"/>
<path d="M7202 6748 c3 -7 155 -462 338 -1010 l334 -998 261 0 261 0 329 998
c180 548 330 1003 333 1010 3 9 -45 12 -221 12 l-226 0 -16 -52 c-9 -29 -112
-376 -228 -771 -117 -395 -216 -719 -222 -720 -8 0 -149 466 -450 1491 l-16
52 -240 0 c-189 0 -240 -3 -237 -12z"/>
<path d="M9409 6755 c-3 -2 146 -457 330 -1010 l336 -1005 262 0 262 0 86 263
c48 144 196 595 331 1002 134 407 244 744 244 748 0 4 -101 7 -225 7 l-224 0
-9 -33 c-81 -293 -449 -1516 -456 -1514 -4 1 -111 349 -235 772 l-227 770
-235 3 c-130 1 -238 0 -240 -3z"/>
</g>
</svg>
