<svg id="svg" version="1.1" xmlns="http://www.w3.org/2000/svg" xmlns:xlink="http://www.w3.org/1999/xlink" width="400" height="400" viewBox="0, 0, 400,400"><g id="svgg"><path id="path0" d="M247.400 121.030 C 241.069 121.722,238.005 122.241,232.600 123.541 C 224.153 125.572,209.559 133.155,203.200 138.817 C 202.430 139.503,201.083 140.544,200.206 141.132 C 197.091 143.220,192.043 148.709,192.665 149.332 C 192.813 149.479,196.235 149.600,200.271 149.600 C 207.251 149.600,207.642 149.641,208.304 150.445 C 208.687 150.909,209.225 151.526,209.500 151.816 C 209.775 152.106,210.000 152.536,210.000 152.771 C 210.000 153.007,210.135 153.200,210.300 153.201 C 210.685 153.202,212.800 156.536,212.800 157.142 C 212.800 157.477,209.174 157.600,199.299 157.600 L 185.799 157.600 184.809 159.500 C 184.265 160.545,183.725 161.490,183.610 161.600 C 182.362 162.790,181.054 166.061,181.670 166.452 C 181.962 166.637,190.347 166.791,200.305 166.794 L 218.409 166.800 219.605 169.410 C 220.262 170.846,220.800 172.250,220.800 172.530 C 220.800 172.811,221.016 173.256,221.280 173.520 C 221.653 173.893,216.952 174.000,200.126 174.000 L 178.492 174.000 177.846 174.986 C 177.491 175.528,177.200 176.418,177.200 176.962 C 177.200 177.507,177.020 178.064,176.800 178.200 C 176.580 178.336,176.400 179.056,176.400 179.800 C 176.400 180.544,176.220 181.264,176.000 181.400 C 175.432 181.751,175.504 182.246,176.229 182.971 C 176.786 183.529,179.520 183.600,200.284 183.600 C 226.158 183.600,224.756 183.459,224.787 186.073 C 224.808 187.784,226.160 187.932,227.716 186.394 C 232.392 181.767,237.950 179.460,243.800 179.715 C 251.001 180.030,252.908 180.811,252.591 183.315 C 251.870 189.006,251.495 190.371,250.675 190.284 C 250.066 190.220,249.782 190.538,249.500 191.600 C 249.005 193.463,249.051 193.446,247.102 192.515 C 244.104 191.082,243.196 190.800,241.577 190.800 C 232.034 190.800,228.946 209.406,237.962 212.586 C 242.441 214.167,245.946 212.863,247.262 209.128 C 248.159 206.578,249.000 205.703,252.400 203.776 C 253.830 202.965,255.540 201.997,256.200 201.623 C 257.502 200.887,260.012 200.175,262.700 199.780 C 264.396 199.530,264.990 198.712,263.805 198.257 C 261.761 197.473,255.681 197.662,251.829 198.629 C 250.851 198.874,250.800 198.807,250.800 197.274 C 250.800 193.016,252.229 190.400,254.553 190.400 C 254.879 190.400,255.260 190.042,255.399 189.604 C 255.907 188.003,263.737 186.671,268.800 187.324 C 273.366 187.912,276.116 189.890,277.296 193.434 L 277.951 195.400 277.975 193.926 C 278.011 191.771,278.639 190.400,279.590 190.400 C 280.184 190.400,280.400 190.137,280.400 189.414 C 280.400 188.033,281.473 187.599,284.874 187.606 C 288.554 187.614,288.991 187.869,288.673 189.827 L 288.428 191.335 289.914 189.915 C 292.355 187.581,296.992 186.389,296.193 188.300 C 295.220 190.626,294.006 194.603,294.158 194.969 C 294.256 195.206,294.351 195.085,294.368 194.700 C 294.386 194.315,294.541 194.000,294.713 194.000 C 294.885 194.000,295.830 193.220,296.813 192.267 C 301.903 187.329,307.338 185.975,311.394 188.633 C 312.733 189.510,313.193 189.072,313.240 186.876 C 313.299 184.076,313.697 183.020,314.748 182.868 C 315.339 182.783,315.809 182.321,316.071 181.568 L 316.478 180.400 320.839 180.400 C 325.683 180.400,325.498 180.265,324.816 183.294 C 324.605 184.232,324.258 185.990,324.044 187.200 C 323.672 189.299,323.437 190.792,322.405 197.600 C 322.155 199.250,321.786 201.590,321.586 202.800 C 321.385 204.010,321.027 206.350,320.789 208.000 C 320.551 209.650,320.196 211.900,320.000 213.000 C 319.805 214.100,319.428 216.292,319.163 217.871 C 318.765 220.251,318.537 220.779,317.835 220.955 C 317.364 221.074,316.781 221.716,316.523 222.399 L 316.058 223.630 312.129 223.515 L 308.200 223.400 308.073 222.300 C 307.960 221.318,307.200 220.670,307.200 221.556 C 307.200 223.218,299.157 224.333,296.569 223.030 C 292.452 220.957,289.616 215.546,289.635 209.800 C 289.643 207.643,290.476 202.449,290.933 201.709 C 291.515 200.767,290.314 200.770,289.077 201.714 C 287.611 202.833,287.181 204.487,285.570 215.200 C 284.984 219.103,284.478 220.390,283.366 220.813 C 282.777 221.037,282.412 221.553,282.329 222.279 L 282.200 223.400 277.800 223.400 L 273.400 223.400 273.459 222.100 C 273.514 220.893,273.427 220.800,272.242 220.800 C 271.147 220.800,270.911 220.985,270.583 222.100 L 270.200 223.400 266.861 223.517 C 263.189 223.645,262.400 223.319,262.400 221.676 L 262.400 220.649 261.588 221.520 C 258.471 224.867,250.607 224.634,247.852 221.115 C 246.661 219.592,244.800 219.966,244.800 221.727 C 244.800 222.771,243.453 223.600,241.758 223.600 C 241.206 223.600,239.938 223.806,238.939 224.057 C 235.341 224.963,229.578 223.290,226.270 220.378 L 224.514 218.832 224.057 219.835 C 223.806 220.386,223.600 221.179,223.600 221.595 C 223.600 222.012,223.420 222.464,223.200 222.600 C 222.980 222.736,222.800 223.251,222.800 223.744 C 222.800 225.623,223.071 225.600,200.520 225.600 C 176.002 225.600,178.370 225.078,180.412 230.029 C 182.008 233.900,180.225 233.587,200.700 233.594 C 221.715 233.601,219.955 233.037,216.545 238.673 L 214.291 242.400 200.530 242.400 L 186.770 242.400 188.463 244.900 C 189.394 246.275,190.392 247.639,190.681 247.931 C 190.969 248.223,191.390 248.808,191.617 249.231 C 192.002 249.951,192.548 250.000,200.214 250.000 C 205.452 250.000,208.400 250.145,208.400 250.403 C 208.400 250.854,204.867 254.860,202.093 257.555 L 200.286 259.311 201.243 260.082 C 202.175 260.834,206.983 264.416,210.200 266.755 C 211.080 267.395,212.450 268.280,213.245 268.722 C 214.040 269.163,215.030 269.716,215.445 269.950 C 234.772 280.841,261.595 282.508,282.200 274.098 C 287.992 271.734,293.820 268.794,296.025 267.123 C 297.001 266.383,299.150 264.886,300.800 263.798 C 306.841 259.812,317.230 248.423,321.168 241.469 C 321.988 240.022,322.588 238.951,324.794 235.000 C 325.408 233.900,326.389 231.560,326.973 229.800 C 327.558 228.040,328.190 226.240,328.379 225.800 C 329.066 224.195,330.793 216.952,331.669 212.000 C 332.383 207.963,332.383 192.042,331.669 188.000 C 330.891 183.595,330.094 180.109,329.200 177.200 C 329.031 176.650,328.661 175.390,328.377 174.400 C 328.093 173.410,327.712 172.429,327.530 172.220 C 327.349 172.011,327.200 171.611,327.200 171.330 C 327.200 169.804,320.594 157.560,317.871 154.039 C 316.952 152.851,315.589 151.063,314.843 150.066 C 308.531 141.635,288.375 126.800,283.233 126.800 C 283.008 126.800,282.234 126.476,281.512 126.079 C 278.962 124.679,273.015 123.026,266.800 121.991 C 264.170 121.553,253.652 120.407,252.800 120.465 C 252.470 120.487,250.040 120.742,247.400 121.030 M303.940 198.668 C 302.801 198.970,301.600 202.842,301.600 206.211 C 301.600 210.727,302.901 212.569,306.055 212.522 C 308.123 212.491,309.160 211.763,309.187 210.324 C 309.194 209.952,309.380 209.536,309.600 209.400 C 310.186 209.038,310.103 201.772,309.500 200.699 C 308.335 198.624,306.554 197.974,303.940 198.668 M259.280 209.280 C 257.913 210.647,259.255 214.000,261.170 214.000 C 262.159 214.000,262.324 213.820,262.539 212.500 C 262.674 211.675,262.899 210.505,263.039 209.900 C 263.321 208.682,260.366 208.194,259.280 209.280 M326.400 215.950 C 326.400 216.143,325.831 216.414,325.136 216.553 C 323.975 216.785,323.827 217.383,324.928 217.395 C 325.474 217.401,325.600 217.674,325.600 218.849 C 325.600 219.514,325.484 219.601,325.063 219.252 C 324.473 218.763,324.000 219.036,324.000 219.867 C 324.000 220.667,325.378 220.509,326.185 219.616 C 326.661 219.091,326.813 218.505,326.646 217.841 C 326.509 217.295,326.578 216.737,326.799 216.601 C 327.837 215.959,327.209 219.902,326.163 220.587 C 324.567 221.633,322.053 220.507,323.269 219.291 C 323.628 218.932,323.625 218.574,323.257 217.766 C 322.894 216.968,322.889 216.575,323.237 216.155 C 323.738 215.552,326.400 215.379,326.400 215.950 M322.800 218.400 C 322.800 218.840,322.620 219.200,322.400 219.200 C 322.180 219.200,322.000 218.840,322.000 218.400 C 322.000 217.960,322.180 217.600,322.400 217.600 C 322.620 217.600,322.800 217.960,322.800 218.400 " stroke="none" fill="#f5aa39" fill-rule="evenodd"></path><path id="path1" d="M70.200 89.600 C 70.051 89.841,67.270 90.000,63.200 90.000 C 59.130 90.000,56.349 90.159,56.200 90.400 C 56.064 90.620,54.984 90.800,53.800 90.800 C 52.616 90.800,51.552 90.954,51.435 91.143 C 51.319 91.331,50.274 91.598,49.113 91.736 C 46.606 92.033,39.143 95.615,37.540 97.291 C 36.956 97.901,36.277 98.400,36.031 98.400 C 35.447 98.400,31.200 102.647,31.200 103.231 C 31.200 103.477,30.660 104.183,30.000 104.800 C 29.340 105.417,28.800 106.097,28.800 106.312 C 28.800 106.526,28.528 106.928,28.195 107.204 C 27.389 107.873,25.200 112.499,25.200 113.534 C 25.200 113.984,25.020 114.464,24.800 114.600 C 24.580 114.736,24.400 115.276,24.400 115.800 C 24.400 116.324,24.220 116.864,24.000 117.000 C 23.780 117.136,23.600 118.036,23.600 119.000 C 23.600 119.964,23.420 120.864,23.200 121.000 C 22.980 121.136,22.800 122.767,22.800 124.624 C 22.800 126.608,22.635 128.000,22.400 128.000 C 21.846 128.000,21.846 284.257,22.400 284.600 C 22.620 284.736,22.800 286.266,22.800 288.000 C 22.800 289.734,22.980 291.264,23.200 291.400 C 23.420 291.536,23.600 292.436,23.600 293.400 C 23.600 294.364,23.780 295.264,24.000 295.400 C 24.220 295.536,24.400 296.076,24.400 296.600 C 24.400 297.124,24.580 297.664,24.800 297.800 C 25.020 297.936,25.200 298.416,25.200 298.866 C 25.200 299.901,27.389 304.527,28.195 305.196 C 28.528 305.472,28.800 305.912,28.800 306.174 C 28.800 306.436,29.340 307.168,30.000 307.800 C 30.660 308.432,31.200 309.147,31.200 309.389 C 31.200 309.945,35.283 314.000,35.843 314.000 C 36.073 314.000,36.679 314.446,37.191 314.990 C 38.209 316.074,46.596 320.400,47.679 320.400 C 48.050 320.400,48.464 320.580,48.600 320.800 C 48.736 321.020,49.456 321.200,50.200 321.200 C 50.944 321.200,51.664 321.380,51.800 321.600 C 51.936 321.820,53.027 322.000,54.224 322.000 C 55.421 322.000,56.400 322.180,56.400 322.400 C 56.400 322.651,58.992 322.800,63.376 322.800 C 67.596 322.800,70.450 322.958,70.600 323.200 C 70.943 323.755,329.057 323.755,329.400 323.200 C 329.550 322.958,332.404 322.800,336.624 322.800 C 341.008 322.800,343.600 322.651,343.600 322.400 C 343.600 322.180,344.579 322.000,345.776 322.000 C 346.973 322.000,348.064 321.820,348.200 321.600 C 348.336 321.380,349.056 321.200,349.800 321.200 C 350.544 321.200,351.264 321.020,351.400 320.800 C 351.536 320.580,351.950 320.400,352.321 320.400 C 353.404 320.400,361.791 316.074,362.809 314.990 C 363.321 314.446,363.939 314.000,364.183 314.000 C 364.740 314.000,368.800 309.922,368.800 309.362 C 368.800 309.135,369.340 308.432,370.000 307.800 C 370.660 307.168,371.200 306.436,371.200 306.174 C 371.200 305.912,371.472 305.472,371.805 305.196 C 372.611 304.527,374.800 299.901,374.800 298.866 C 374.800 298.416,374.980 297.936,375.200 297.800 C 375.420 297.664,375.600 297.124,375.600 296.600 C 375.600 296.076,375.780 295.536,376.000 295.400 C 376.220 295.264,376.400 294.364,376.400 293.400 C 376.400 292.436,376.580 291.536,376.800 291.400 C 377.020 291.264,377.200 289.734,377.200 288.000 C 377.200 286.266,377.380 284.736,377.600 284.600 C 378.154 284.257,378.154 128.000,377.600 128.000 C 377.365 128.000,377.200 126.608,377.200 124.624 C 377.200 122.767,377.020 121.136,376.800 121.000 C 376.580 120.864,376.400 119.964,376.400 119.000 C 376.400 118.036,376.220 117.136,376.000 117.000 C 375.780 116.864,375.600 116.324,375.600 115.800 C 375.600 115.276,375.420 114.736,375.200 114.600 C 374.980 114.464,374.800 113.984,374.800 113.534 C 374.800 112.499,372.611 107.873,371.805 107.204 C 371.472 106.928,371.200 106.526,371.200 106.312 C 371.200 106.097,370.660 105.417,370.000 104.800 C 369.340 104.183,368.800 103.477,368.800 103.231 C 368.800 102.647,364.553 98.400,363.969 98.400 C 363.723 98.400,363.044 97.901,362.460 97.291 C 360.857 95.615,353.394 92.033,350.887 91.736 C 349.726 91.598,348.681 91.331,348.565 91.143 C 348.448 90.954,347.384 90.800,346.200 90.800 C 345.016 90.800,343.936 90.620,343.800 90.400 C 343.651 90.159,340.870 90.000,336.800 90.000 C 332.730 90.000,329.949 89.841,329.800 89.600 C 329.457 89.045,70.543 89.045,70.200 89.600 M339.669 94.435 C 344.308 95.384,351.429 98.049,352.400 99.201 C 352.510 99.332,353.230 99.878,354.000 100.415 C 355.878 101.725,360.400 106.269,360.400 106.846 C 360.400 107.099,360.715 107.599,361.100 107.957 C 362.045 108.836,363.832 112.051,364.903 114.800 C 365.118 115.350,365.452 116.113,365.647 116.495 C 365.841 116.877,366.000 117.696,366.000 118.315 C 366.000 118.934,366.181 119.621,366.402 119.842 C 366.884 120.324,366.736 279.139,366.252 281.000 C 365.953 282.149,365.812 282.546,364.904 284.800 C 364.049 286.923,362.586 289.806,362.300 289.933 C 362.135 290.007,361.997 290.277,361.993 290.533 C 361.972 291.841,355.850 298.139,352.485 300.314 C 348.860 302.656,345.183 304.048,339.600 305.190 C 336.531 305.818,61.905 305.537,59.000 304.903 C 55.071 304.046,53.958 303.663,50.701 302.051 C 42.122 297.805,36.442 290.572,33.763 280.480 C 33.063 277.845,32.904 120.230,33.600 119.800 C 33.820 119.664,34.000 119.021,34.000 118.371 C 34.000 117.721,34.159 116.877,34.353 116.495 C 34.548 116.113,34.882 115.350,35.097 114.800 C 35.856 112.851,37.941 108.837,38.419 108.400 C 38.540 108.290,39.078 107.570,39.615 106.800 C 42.094 103.244,46.970 99.302,51.600 97.111 C 53.584 96.173,55.036 95.729,60.200 94.486 C 62.574 93.915,336.878 93.865,339.669 94.435 M138.000 121.992 C 137.670 122.209,136.521 122.391,135.446 122.394 C 134.372 122.397,132.842 122.575,132.046 122.788 C 128.505 123.739,122.108 125.200,121.485 125.200 C 121.108 125.200,120.800 125.336,120.800 125.502 C 120.800 125.669,120.215 126.040,119.500 126.329 C 118.785 126.617,117.887 127.021,117.505 127.226 C 117.123 127.432,116.448 127.600,116.005 127.600 C 115.562 127.600,115.200 127.780,115.200 128.000 C 115.200 128.220,114.840 128.400,114.400 128.400 C 113.960 128.400,113.600 128.580,113.600 128.800 C 113.600 129.020,113.240 129.200,112.800 129.200 C 112.360 129.200,112.000 129.380,112.000 129.600 C 112.000 129.820,111.640 130.000,111.200 130.000 C 110.760 130.000,110.400 130.180,110.400 130.400 C 110.400 130.620,110.040 130.800,109.600 130.800 C 109.160 130.800,108.800 130.980,108.800 131.200 C 108.800 131.420,108.440 131.600,108.000 131.600 C 107.560 131.600,107.200 131.780,107.200 132.000 C 107.200 132.220,106.930 132.400,106.600 132.400 C 106.270 132.400,106.000 132.580,106.000 132.800 C 106.000 133.020,105.745 133.200,105.433 133.200 C 105.122 133.200,104.807 133.344,104.733 133.519 C 104.660 133.694,103.162 134.819,101.405 136.019 C 97.322 138.806,97.105 138.986,90.990 144.674 C 89.790 145.791,87.064 149.006,83.600 153.392 C 82.610 154.645,81.620 155.880,81.400 156.135 C 81.025 156.570,79.638 159.065,78.640 161.097 C 78.398 161.590,78.065 161.995,77.900 161.997 C 77.735 161.999,77.600 162.270,77.600 162.600 C 77.600 162.930,77.465 163.200,77.300 163.201 C 76.308 163.203,72.740 171.042,71.201 176.600 C 69.826 181.570,69.639 182.429,68.336 189.800 C 66.710 198.998,68.039 213.050,71.646 224.800 C 72.355 227.110,73.069 229.270,73.233 229.600 C 73.397 229.930,73.981 231.206,74.530 232.436 C 76.252 236.291,80.654 243.873,82.668 246.453 C 83.731 247.813,85.264 249.787,86.075 250.838 C 92.799 259.553,106.276 269.418,116.712 273.263 C 117.971 273.727,119.180 274.240,119.400 274.403 C 119.948 274.808,124.183 276.211,126.500 276.755 C 135.470 278.858,136.809 279.001,147.200 278.977 C 157.165 278.953,157.282 278.941,166.061 277.036 C 172.724 275.590,184.982 270.222,190.200 266.466 C 195.443 262.692,199.173 259.801,199.186 259.500 C 199.194 259.335,199.471 259.200,199.801 259.200 C 200.737 259.200,208.400 251.361,208.400 250.403 C 208.400 250.145,205.452 250.000,200.214 250.000 C 192.548 250.000,192.002 249.951,191.617 249.231 C 191.390 248.808,190.969 248.223,190.681 247.931 C 190.392 247.639,189.394 246.275,188.463 244.900 L 186.770 242.400 200.530 242.400 L 214.291 242.400 216.545 238.673 C 219.955 233.037,221.715 233.601,200.700 233.594 C 180.225 233.587,182.008 233.900,180.412 230.029 C 178.370 225.078,176.002 225.600,200.520 225.600 C 223.071 225.600,222.800 225.623,222.800 223.744 C 222.800 223.251,222.980 222.736,223.200 222.600 C 223.420 222.464,223.600 222.012,223.600 221.595 C 223.600 221.179,223.811 220.374,224.069 219.808 L 224.539 218.777 225.955 220.089 C 227.225 221.264,227.202 221.209,225.733 219.560 C 222.758 216.220,221.655 212.875,221.263 206.000 L 221.000 201.400 219.322 201.278 C 216.824 201.097,216.014 203.473,214.371 215.800 C 213.888 219.424,213.202 221.200,212.286 221.200 C 212.013 221.200,211.612 221.605,211.395 222.100 C 211.027 222.938,210.715 223.008,206.873 223.114 L 202.747 223.229 203.001 221.314 C 203.141 220.261,203.413 218.500,203.607 217.400 C 203.800 216.300,204.152 214.050,204.390 212.400 C 204.627 210.750,204.990 208.410,205.195 207.200 C 206.290 200.754,206.434 199.653,206.396 198.000 C 206.287 193.241,206.825 190.721,208.050 190.259 C 208.827 189.965,209.200 189.545,209.200 188.961 C 209.200 187.446,210.055 187.162,214.256 187.285 L 218.194 187.400 218.397 188.501 L 218.600 189.603 220.000 188.402 C 221.079 187.477,221.790 187.202,223.100 187.201 C 224.691 187.200,224.799 187.129,224.787 186.100 C 224.757 183.439,226.243 183.583,199.954 183.697 L 176.200 183.800 176.067 185.197 C 175.995 185.965,175.725 186.727,175.467 186.890 C 175.210 187.054,175.840 187.191,176.867 187.194 C 179.597 187.203,181.178 188.425,179.667 189.358 C 179.484 189.472,179.101 190.877,178.815 192.482 C 178.438 194.596,178.034 195.643,177.347 196.281 C 176.826 196.765,176.400 197.440,176.400 197.781 C 176.400 198.220,175.999 198.400,175.024 198.400 C 173.341 198.400,173.206 198.604,172.757 201.831 C 172.215 205.729,171.644 209.279,171.369 210.461 C 170.987 212.101,172.381 213.278,174.522 213.122 L 176.200 213.000 176.062 210.712 C 175.702 204.740,178.285 197.095,182.018 193.088 C 182.448 192.627,182.800 192.041,182.800 191.786 C 182.800 190.657,187.285 187.200,188.748 187.200 C 189.191 187.200,189.664 187.020,189.800 186.800 C 189.936 186.580,191.466 186.400,193.200 186.400 C 194.934 186.400,196.464 186.580,196.600 186.800 C 196.736 187.020,197.161 187.200,197.544 187.200 C 198.419 187.200,200.393 188.099,200.397 188.500 C 200.399 188.665,200.639 188.800,200.930 188.800 C 202.225 188.800,205.004 193.554,205.257 196.200 C 205.607 199.852,204.203 207.200,203.156 207.200 C 202.713 207.200,202.369 207.629,202.202 208.391 L 201.940 209.582 194.703 209.691 C 186.699 209.812,186.236 209.979,188.378 211.979 C 190.421 213.888,194.921 214.045,201.153 212.427 C 203.365 211.853,203.404 211.905,202.872 214.690 C 202.629 215.961,202.324 217.683,202.194 218.518 C 202.018 219.643,201.703 220.133,200.978 220.408 C 200.396 220.630,200.000 221.100,200.000 221.571 C 200.000 224.014,186.961 224.308,182.349 221.969 C 180.522 221.043,177.850 218.039,177.319 216.314 L 176.915 215.000 176.457 216.126 C 176.206 216.745,176.000 217.768,176.000 218.397 C 176.000 219.629,175.104 220.800,174.162 220.800 C 173.842 220.800,173.413 221.241,173.208 221.780 C 171.747 225.622,161.918 223.758,160.745 219.417 C 160.505 218.527,160.248 217.583,160.174 217.318 C 160.099 217.052,159.085 217.754,157.919 218.878 C 153.636 223.007,150.736 223.921,143.425 223.447 C 138.200 223.108,137.035 222.789,136.869 221.650 C 136.693 220.446,135.507 220.697,135.201 222.002 C 134.732 223.997,127.600 223.574,127.600 221.551 C 127.600 220.596,127.494 220.606,125.692 221.733 C 122.261 223.879,118.163 224.247,115.163 222.678 C 113.439 221.777,112.757 220.809,111.160 217.000 L 110.657 215.800 110.377 217.860 C 110.041 220.336,109.790 220.800,108.787 220.800 C 108.340 220.800,107.762 221.300,107.400 222.000 L 106.779 223.200 103.023 223.200 C 100.499 223.200,99.215 223.046,99.110 222.730 C 98.920 222.161,99.794 216.195,100.769 211.400 C 100.993 210.300,101.371 207.972,101.610 206.227 C 101.848 204.481,102.134 202.906,102.245 202.727 C 102.356 202.547,102.350 202.400,102.230 202.400 C 101.646 202.400,95.200 219.136,95.200 220.654 C 95.200 220.734,94.922 220.800,94.581 220.800 C 94.241 220.800,93.656 221.339,93.281 221.997 C 92.632 223.138,92.474 223.195,89.943 223.197 C 86.597 223.201,86.800 223.835,86.800 213.367 C 86.800 204.309,86.486 202.816,85.649 207.900 C 85.368 209.605,84.977 211.810,84.779 212.800 C 84.581 213.790,84.188 215.942,83.904 217.583 C 83.461 220.145,83.260 220.597,82.480 220.783 C 81.981 220.902,81.349 221.450,81.075 222.000 C 80.603 222.951,80.386 223.006,76.689 223.114 L 72.800 223.229 72.800 222.192 C 72.800 221.621,72.966 220.400,73.169 219.477 C 73.372 218.555,73.751 216.450,74.012 214.800 C 74.464 211.943,75.025 208.828,76.210 202.600 C 76.503 201.060,77.324 196.138,78.033 191.663 C 79.219 184.188,79.398 183.493,80.241 183.109 C 80.789 182.859,81.206 182.271,81.279 181.646 L 81.400 180.600 87.800 180.600 L 94.200 180.600 94.447 188.400 C 94.583 192.690,94.734 196.920,94.783 197.800 C 94.857 199.143,95.308 198.084,97.587 191.206 C 99.970 184.018,100.418 182.985,101.237 182.791 C 101.802 182.658,102.262 182.182,102.403 181.585 L 102.635 180.600 109.187 180.490 C 116.984 180.359,116.492 179.997,115.593 185.200 C 113.822 195.442,112.001 207.178,112.018 208.241 L 112.035 209.400 112.809 207.936 C 115.244 203.327,120.310 200.306,126.500 199.773 C 128.701 199.583,129.600 199.350,129.600 198.967 C 129.600 197.258,122.810 196.879,116.700 198.247 C 115.396 198.539,115.334 198.136,116.068 194.151 C 116.419 192.250,116.729 191.550,117.302 191.368 C 117.723 191.234,118.250 190.603,118.472 189.967 C 119.002 188.445,121.588 187.645,127.000 187.330 C 133.993 186.922,138.162 188.548,139.486 192.200 C 139.805 193.080,140.245 194.245,140.465 194.788 L 140.863 195.777 141.651 194.788 C 142.085 194.245,143.170 192.836,144.063 191.658 C 146.744 188.122,148.787 187.400,156.115 187.400 C 162.806 187.400,162.807 187.401,162.496 190.337 C 162.009 194.929,161.851 195.392,160.716 195.524 C 159.972 195.611,159.612 195.914,159.525 196.524 C 159.407 197.348,159.167 197.407,155.500 197.514 C 150.272 197.668,150.246 198.700,155.406 201.307 C 158.477 202.859,159.824 204.089,160.827 206.258 L 161.488 207.689 161.978 204.344 C 162.455 201.092,163.514 194.773,164.434 189.701 C 164.683 188.327,164.794 186.960,164.680 186.665 C 164.431 186.016,164.738 185.545,165.791 184.962 C 166.226 184.721,166.684 184.091,166.808 183.562 C 167.027 182.630,167.168 182.596,171.259 182.487 C 175.859 182.364,176.400 182.040,176.400 179.405 C 176.400 178.878,176.580 178.336,176.800 178.200 C 177.020 178.064,177.200 177.463,177.200 176.865 C 177.200 176.267,177.480 175.378,177.823 174.889 L 178.445 174.000 200.026 174.000 C 220.448 174.000,221.588 173.962,221.250 173.300 C 221.054 172.915,220.710 172.150,220.487 171.600 C 220.263 171.050,219.701 169.745,219.238 168.700 L 218.396 166.800 199.985 166.800 C 178.120 166.800,179.788 167.495,184.168 160.208 L 185.736 157.600 199.268 157.600 C 214.730 157.600,213.846 157.878,210.900 153.940 C 207.297 149.123,208.500 149.600,199.951 149.600 C 195.824 149.600,192.346 149.437,192.223 149.237 C 192.100 149.038,193.529 147.306,195.399 145.389 C 199.351 141.338,199.328 141.426,196.938 139.600 C 195.930 138.830,194.712 137.840,194.231 137.400 C 193.750 136.960,192.961 136.375,192.478 136.100 C 191.995 135.825,191.208 135.375,190.730 135.100 C 190.251 134.825,189.324 134.105,188.670 133.500 C 188.016 132.895,187.238 132.400,186.941 132.400 C 186.643 132.400,186.400 132.220,186.400 132.000 C 186.400 131.780,186.040 131.600,185.600 131.600 C 185.160 131.600,184.799 131.465,184.797 131.300 C 184.793 130.941,182.856 130.000,182.120 130.000 C 181.834 130.000,181.600 129.820,181.600 129.600 C 181.600 129.380,181.240 129.200,180.800 129.200 C 180.360 129.200,180.000 129.020,180.000 128.800 C 180.000 128.580,179.640 128.400,179.200 128.400 C 178.760 128.400,178.400 128.220,178.400 128.000 C 178.400 127.780,177.950 127.600,177.400 127.600 C 176.850 127.600,176.400 127.420,176.400 127.200 C 176.400 126.980,176.045 126.800,175.612 126.800 C 175.179 126.800,174.222 126.462,173.486 126.048 C 172.247 125.353,171.373 125.092,166.400 123.939 C 165.410 123.709,163.880 123.350,163.000 123.141 C 157.998 121.952,139.358 121.095,138.000 121.992 M188.960 197.506 C 188.436 197.856,187.600 199.372,187.600 199.974 C 187.600 200.242,188.860 200.400,191.000 200.400 C 194.091 200.400,194.400 200.330,194.400 199.629 C 194.400 197.942,190.555 196.441,188.960 197.506 M139.834 203.892 C 139.552 204.781,138.896 209.501,138.527 213.300 C 138.338 215.246,138.404 215.600,138.952 215.600 C 139.356 215.600,139.602 215.260,139.606 214.700 C 139.619 212.794,140.028 212.652,143.492 213.354 C 147.223 214.110,148.943 214.165,150.064 213.566 L 150.875 213.132 150.057 212.260 C 149.606 211.781,148.232 210.863,147.004 210.220 C 144.125 208.714,141.811 206.609,140.856 204.629 C 140.186 203.237,140.069 203.153,139.834 203.892 M123.516 208.868 C 120.226 209.763,121.336 213.957,124.871 213.987 C 127.109 214.007,128.239 212.441,127.931 209.748 C 127.781 208.430,126.249 208.124,123.516 208.868 M248.488 221.813 C 249.086 222.443,249.647 222.877,249.735 222.779 C 249.823 222.680,249.333 222.165,248.647 221.634 L 247.400 220.669 248.488 221.813 M262.440 221.820 C 262.370 223.257,263.183 223.600,266.656 223.600 C 268.469 223.600,270.037 223.465,270.139 223.300 C 270.241 223.135,268.686 223.000,266.682 223.000 C 263.137 223.000,263.031 222.973,262.759 222.000 C 262.525 221.162,262.473 221.133,262.440 221.820 M273.334 222.400 L 273.400 223.400 277.795 223.400 C 281.415 223.400,282.197 223.294,282.233 222.800 C 282.258 222.455,282.206 222.413,282.109 222.700 C 281.760 223.739,273.691 223.366,273.462 222.300 C 273.292 221.507,273.277 221.519,273.334 222.400 M242.200 223.200 C 241.093 223.482,241.077 223.509,242.000 223.547 C 242.550 223.569,243.270 223.413,243.600 223.200 C 244.281 222.760,243.929 222.760,242.200 223.200 M235.100 224.143 C 236.145 224.371,237.455 224.371,238.500 224.143 C 240.023 223.810,239.845 223.771,236.800 223.771 C 233.755 223.771,233.577 223.810,235.100 224.143 M253.705 223.887 C 254.314 223.979,255.214 223.977,255.705 223.882 C 256.197 223.787,255.700 223.711,254.600 223.714 C 253.500 223.717,253.097 223.795,253.705 223.887 " stroke="none" fill="#c92b2b" fill-rule="evenodd"></path><path id="path2" d="M60.200 94.486 C 55.036 95.729,53.584 96.173,51.600 97.111 C 46.970 99.302,42.094 103.244,39.615 106.800 C 39.078 107.570,38.540 108.290,38.419 108.400 C 37.941 108.837,35.856 112.851,35.097 114.800 C 34.882 115.350,34.548 116.113,34.353 116.495 C 34.159 116.877,34.000 117.721,34.000 118.371 C 34.000 119.021,33.820 119.664,33.600 119.800 C 32.904 120.230,33.063 277.845,33.763 280.480 C 36.442 290.572,42.122 297.805,50.701 302.051 C 53.958 303.663,55.071 304.046,59.000 304.903 C 61.905 305.537,336.531 305.818,339.600 305.190 C 345.183 304.048,348.860 302.656,352.485 300.314 C 355.850 298.139,361.972 291.841,361.993 290.533 C 361.997 290.277,362.135 290.007,362.300 289.933 C 362.586 289.806,364.049 286.923,364.904 284.800 C 365.812 282.546,365.953 282.149,366.252 281.000 C 366.736 279.139,366.884 120.324,366.402 119.842 C 366.181 119.621,366.000 118.934,366.000 118.315 C 366.000 117.696,365.841 116.877,365.647 116.495 C 365.452 116.113,365.118 115.350,364.903 114.800 C 363.832 112.051,362.045 108.836,361.100 107.957 C 360.715 107.599,360.400 107.099,360.400 106.846 C 360.400 106.269,355.878 101.725,354.000 100.415 C 353.230 99.878,352.510 99.332,352.400 99.201 C 351.429 98.049,344.308 95.384,339.669 94.435 C 336.878 93.865,62.574 93.915,60.200 94.486 M343.600 95.924 C 346.903 97.098,351.600 99.260,351.600 99.607 C 351.600 99.752,352.022 100.064,352.537 100.298 C 355.277 101.547,360.530 107.498,362.707 111.821 C 366.813 119.973,366.685 116.689,366.134 200.134 C 365.878 238.830,365.839 240.400,365.134 240.400 C 364.730 240.400,364.400 240.220,364.400 240.000 C 364.400 239.780,364.220 239.600,364.000 239.600 C 363.739 239.600,363.600 246.659,363.600 259.976 C 363.600 273.129,363.458 280.440,363.200 280.600 C 362.980 280.736,362.800 281.276,362.800 281.800 C 362.800 282.324,362.620 282.864,362.400 283.000 C 362.180 283.136,362.000 283.687,362.000 284.224 C 362.000 284.761,361.820 285.200,361.600 285.200 C 361.380 285.200,361.200 285.560,361.200 286.000 C 361.200 286.440,361.020 286.800,360.800 286.800 C 360.580 286.800,360.400 286.993,360.400 287.228 C 360.400 288.540,352.854 297.186,351.700 297.196 C 351.425 297.198,351.200 297.359,351.200 297.552 C 351.200 297.979,346.103 300.524,343.600 301.348 C 338.956 302.876,338.514 302.879,196.400 302.501 L 58.600 302.134 55.800 301.027 C 54.260 300.418,52.685 299.827,52.300 299.713 C 51.915 299.600,51.600 299.348,51.600 299.153 C 51.600 298.959,51.407 298.800,51.172 298.800 C 49.974 298.800,41.600 291.440,41.600 290.387 C 41.600 290.206,41.372 289.819,41.094 289.529 C 40.280 288.677,38.175 284.353,37.624 282.400 C 37.345 281.410,36.955 280.187,36.758 279.681 C 36.552 279.152,36.400 247.653,36.400 205.353 C 36.400 127.171,36.486 130.800,34.629 130.800 C 34.121 130.800,34.000 130.295,34.000 128.176 C 34.000 126.529,34.149 125.645,34.400 125.800 C 34.620 125.936,34.800 125.857,34.800 125.624 C 34.800 125.391,34.639 125.200,34.442 125.200 C 34.233 125.200,34.229 124.575,34.433 123.700 C 34.624 122.875,34.785 121.536,34.790 120.724 C 34.796 119.912,34.980 119.136,35.200 119.000 C 35.420 118.864,35.600 118.315,35.600 117.781 C 35.600 113.133,42.868 103.159,48.830 99.625 C 52.985 97.163,57.333 95.677,61.762 95.205 C 63.323 95.039,126.790 94.925,202.800 94.952 L 341.000 95.000 343.600 95.924 M79.907 183.300 C 79.442 183.661,78.911 186.031,78.001 191.800 C 77.308 196.200,76.501 201.060,76.209 202.600 C 74.996 208.990,74.461 211.959,74.012 214.800 C 73.751 216.450,73.372 218.555,73.169 219.477 C 72.966 220.400,72.800 221.621,72.800 222.192 L 72.800 223.229 76.689 223.114 C 80.385 223.006,80.603 222.950,81.078 222.000 L 81.577 221.000 78.289 220.800 C 74.564 220.573,74.766 220.886,75.583 216.600 C 76.039 214.206,76.493 211.543,77.219 207.000 C 77.429 205.680,77.768 203.610,77.971 202.400 C 78.372 200.004,79.007 196.055,80.381 187.400 C 80.556 186.300,80.834 184.815,80.999 184.100 C 81.320 182.715,80.982 182.467,79.907 183.300 M100.202 183.300 C 97.072 192.324,94.805 200.115,94.818 201.800 L 94.834 203.800 96.174 199.800 C 96.911 197.600,97.973 194.319,98.534 192.510 C 99.095 190.700,99.813 188.630,100.130 187.910 C 100.655 186.716,101.145 185.384,101.750 183.500 C 102.016 182.673,100.488 182.475,100.202 183.300 M164.442 189.500 C 164.158 191.205,163.676 193.992,163.372 195.694 C 162.155 202.503,161.533 207.163,161.408 210.400 C 161.335 212.308,161.002 214.440,160.650 215.259 C 158.320 220.683,164.700 225.358,171.395 223.131 C 174.472 222.107,173.702 221.289,169.702 221.332 C 162.678 221.408,161.286 218.191,163.156 206.200 C 163.361 204.880,163.725 202.540,163.964 201.000 C 164.202 199.460,164.577 197.120,164.798 195.800 C 166.118 187.882,166.226 186.400,165.480 186.400 C 165.142 186.400,164.778 187.487,164.442 189.500 M117.363 191.260 C 116.739 191.563,116.408 192.304,116.063 194.179 C 115.334 198.134,115.398 198.539,116.700 198.247 C 122.817 196.877,129.600 197.258,129.600 198.971 C 129.600 199.730,130.790 200.107,131.451 199.558 C 132.266 198.881,132.116 197.029,131.177 196.180 C 130.085 195.191,126.182 194.952,121.521 195.589 C 117.268 196.170,117.512 196.328,117.931 193.264 C 118.116 191.909,118.252 190.812,118.234 190.827 C 118.215 190.842,117.823 191.037,117.363 191.260 M141.880 194.500 C 138.073 199.652,140.304 206.694,146.836 210.143 C 149.237 211.411,150.875 212.755,150.587 213.221 C 150.484 213.388,150.737 213.437,151.151 213.329 C 153.898 212.610,152.818 209.947,148.836 207.621 C 142.731 204.056,140.950 200.488,142.585 195.100 C 143.267 192.854,143.162 192.765,141.880 194.500 M87.625 195.176 C 87.601 196.502,87.097 199.659,86.376 203.000 C 86.163 203.989,86.178 204.651,86.415 204.733 C 86.645 204.813,86.800 208.300,86.800 213.401 C 86.800 223.831,86.598 223.201,89.943 223.197 C 92.474 223.195,92.632 223.138,93.281 221.997 L 93.963 220.800 91.605 220.800 C 88.601 220.800,88.898 222.073,88.570 207.782 C 88.414 200.972,88.143 195.040,87.968 194.600 C 87.715 193.962,87.646 194.078,87.625 195.176 M190.600 195.537 C 188.255 196.970,188.164 197.505,190.300 197.302 C 192.455 197.097,194.400 198.214,194.400 199.656 C 194.400 200.892,196.553 200.529,196.733 199.262 C 197.192 196.021,193.488 193.771,190.600 195.537 M103.898 196.072 C 103.785 196.582,103.221 198.259,102.646 199.798 C 101.438 203.029,101.458 202.935,102.062 202.562 C 102.317 202.404,102.416 202.450,102.283 202.665 C 102.151 202.879,101.848 204.481,101.610 206.227 C 101.371 207.972,100.993 210.300,100.769 211.400 C 99.794 216.195,98.920 222.161,99.110 222.730 C 99.215 223.046,100.499 223.200,103.023 223.200 L 106.779 223.200 107.400 222.000 L 108.021 220.800 104.644 220.800 C 100.920 220.800,100.748 220.679,101.234 218.402 C 101.398 217.631,101.741 215.470,101.995 213.600 C 102.249 211.730,102.607 209.300,102.791 208.200 C 102.974 207.100,103.319 204.940,103.556 203.400 C 103.794 201.860,104.155 199.520,104.358 198.200 C 104.712 195.909,104.328 194.134,103.898 196.072 M153.600 195.493 C 152.363 195.720,151.600 196.320,151.600 197.063 C 151.600 198.127,159.367 197.629,159.521 196.556 C 159.685 195.406,156.845 194.896,153.600 195.493 M179.103 197.282 C 176.708 201.422,174.820 213.195,176.550 213.199 C 176.743 213.200,176.790 213.749,176.656 214.420 C 176.518 215.109,176.569 215.543,176.773 215.416 C 176.972 215.294,177.251 215.722,177.393 216.370 C 177.730 217.901,180.501 221.032,182.349 221.969 C 186.983 224.319,200.000 224.013,200.000 221.554 C 200.000 220.898,199.831 220.800,199.100 221.033 C 198.605 221.192,195.943 221.328,193.184 221.336 L 188.167 221.352 185.063 219.818 C 179.433 217.036,176.282 208.557,178.353 201.760 C 178.548 201.122,178.940 199.790,179.225 198.800 C 179.511 197.810,179.917 196.771,180.129 196.490 C 180.341 196.210,180.420 195.887,180.306 195.772 C 180.191 195.658,179.650 196.337,179.103 197.282 M174.160 196.306 C 173.917 196.468,173.636 197.052,173.534 197.604 C 173.236 199.212,176.067 198.818,176.691 197.165 C 177.142 195.970,175.499 195.413,174.160 196.306 M206.311 198.245 C 206.488 199.173,206.047 202.727,205.200 207.200 C 205.012 208.190,204.658 210.440,204.413 212.200 C 204.167 213.960,203.806 216.300,203.611 217.400 C 203.415 218.500,203.142 220.255,203.003 221.300 L 202.751 223.200 206.695 223.200 C 210.607 223.200,211.600 222.900,211.600 221.720 C 211.600 221.336,210.757 221.200,208.387 221.200 C 205.846 221.200,205.125 221.070,204.936 220.576 C 204.709 219.986,206.169 209.292,207.457 202.101 C 208.074 198.656,208.018 198.252,206.837 197.620 C 206.216 197.288,206.144 197.374,206.311 198.245 M221.266 205.899 C 221.808 215.463,224.632 220.518,230.719 222.819 C 234.786 224.356,244.400 223.785,244.400 222.007 C 244.400 221.332,244.027 221.276,239.900 221.335 C 230.330 221.473,224.736 216.491,223.802 207.000 C 223.394 202.853,223.202 202.096,222.490 201.844 C 222.111 201.709,221.620 201.509,221.400 201.399 C 221.137 201.268,221.091 202.812,221.266 205.899 M113.646 206.633 C 113.199 207.201,112.723 208.011,112.590 208.433 C 112.456 208.855,112.197 209.200,112.014 209.200 C 111.832 209.200,111.477 210.685,111.226 212.500 C 109.926 221.898,117.598 226.795,125.692 221.733 C 127.494 220.606,127.600 220.596,127.600 221.551 C 127.600 223.643,134.683 223.982,135.233 221.917 L 135.522 220.833 132.661 220.717 C 130.040 220.610,129.789 220.524,129.672 219.700 C 129.542 218.784,129.024 218.513,128.629 219.154 C 126.740 222.209,117.141 221.758,114.904 218.509 C 112.993 215.735,112.573 209.846,114.076 206.900 C 114.875 205.332,114.737 205.246,113.646 206.633 M124.097 206.930 C 122.257 207.952,121.675 209.340,123.247 208.957 C 127.334 207.962,129.194 209.422,127.609 212.383 C 127.028 213.468,127.513 213.423,128.488 212.300 C 129.542 211.088,130.400 208.956,130.400 207.551 L 130.400 206.400 127.700 206.414 C 126.215 206.422,124.593 206.654,124.097 206.930 M186.800 208.500 L 186.799 209.800 194.292 209.674 C 198.413 209.605,201.819 209.515,201.860 209.473 C 201.901 209.432,202.059 208.904,202.211 208.299 L 202.487 207.200 194.643 207.200 L 186.800 207.200 186.800 208.500 M246.991 210.029 C 246.814 210.586,246.958 211.028,247.430 211.373 C 248.060 211.833,248.085 212.129,247.667 214.210 C 246.169 221.667,250.706 225.458,258.377 223.160 C 261.871 222.113,262.046 221.289,258.770 221.309 C 252.489 221.347,250.350 218.509,250.019 209.700 C 249.985 208.790,247.291 209.083,246.991 210.029 M137.815 217.700 C 137.672 218.855,137.361 220.193,137.124 220.673 C 136.161 222.625,137.108 223.033,143.580 223.457 C 148.402 223.773,152.383 223.134,154.695 221.673 C 157.098 220.155,157.132 219.551,154.764 220.451 C 151.482 221.698,139.865 221.399,139.029 220.047 C 138.919 219.869,138.975 218.795,139.155 217.661 C 139.443 215.838,139.399 215.600,138.778 215.600 C 138.230 215.600,138.018 216.062,137.815 217.700 M274.796 218.619 C 274.503 219.839,274.114 220.930,273.932 221.042 C 273.749 221.155,273.600 221.687,273.600 222.224 C 273.600 223.197,273.614 223.200,277.800 223.200 C 280.110 223.200,282.000 223.035,282.000 222.833 C 282.000 222.631,282.109 222.181,282.243 221.833 C 282.452 221.288,282.038 221.200,279.276 221.200 C 275.653 221.200,275.592 221.148,275.904 218.300 C 276.191 215.669,275.452 215.882,274.796 218.619 M264.679 219.669 C 263.094 220.702,262.780 221.103,262.879 221.961 C 263.066 223.570,270.200 223.608,270.200 222.000 C 270.200 221.134,269.987 220.973,268.602 220.800 C 267.245 220.630,266.974 220.436,266.802 219.508 L 266.600 218.416 264.679 219.669 M295.432 221.949 C 295.130 222.436,298.343 223.600,299.990 223.600 C 301.274 223.600,301.308 223.566,300.576 223.013 C 300.149 222.690,299.316 222.420,298.724 222.413 C 298.132 222.406,297.536 222.220,297.400 222.000 C 297.096 221.508,295.726 221.472,295.432 221.949 " stroke="none" fill="#4a4867" fill-rule="evenodd"></path><path id="path3" d="M60.800 98.398 C 51.242 99.634,41.935 107.193,38.558 116.462 C 36.749 121.427,36.800 119.049,36.800 199.123 C 36.800 273.181,36.889 279.162,38.029 281.295 C 38.233 281.677,38.400 282.183,38.400 282.420 C 38.400 282.657,38.979 284.054,39.686 285.525 C 43.526 293.512,49.781 298.643,58.600 301.039 C 61.787 301.905,338.414 301.893,341.818 301.026 C 352.126 298.404,360.250 289.810,362.641 279.000 C 363.424 275.461,363.425 123.256,362.643 120.000 C 360.294 110.230,353.368 102.797,343.200 99.136 L 340.600 98.200 201.800 98.157 C 125.460 98.133,62.010 98.241,60.800 98.398 M155.000 120.989 C 166.530 122.514,176.733 125.642,184.555 130.050 C 184.970 130.284,185.960 130.836,186.755 131.278 C 187.550 131.719,188.828 132.557,189.596 133.140 C 190.364 133.723,191.418 134.424,191.938 134.698 C 192.458 134.972,194.482 136.470,196.434 138.027 C 200.351 141.151,200.561 141.186,202.800 139.085 C 206.809 135.325,216.804 129.365,223.400 126.802 C 224.720 126.289,225.980 125.737,226.200 125.575 C 226.941 125.031,232.952 123.335,237.200 122.472 C 250.535 119.763,260.818 120.049,274.000 123.494 C 275.210 123.811,276.740 124.207,277.400 124.374 C 278.060 124.542,279.425 125.057,280.432 125.519 C 281.440 125.980,283.236 126.741,284.423 127.209 C 287.127 128.275,295.057 132.316,295.712 132.962 C 295.980 133.227,297.370 134.231,298.800 135.192 C 302.661 137.788,306.604 141.129,310.222 144.869 C 313.151 147.897,314.187 149.143,318.298 154.575 C 319.397 156.027,321.144 158.946,324.776 165.400 C 334.395 182.491,334.934 212.910,325.968 232.696 C 325.546 233.628,325.200 234.500,325.200 234.634 C 325.200 234.767,324.867 235.354,324.460 235.938 C 324.052 236.522,322.944 238.440,321.998 240.200 C 320.187 243.566,318.570 246.063,317.338 247.400 C 316.932 247.840,315.848 249.190,314.928 250.400 C 311.636 254.733,305.409 260.685,300.800 263.907 C 299.370 264.906,297.514 266.253,296.676 266.900 C 295.115 268.105,284.541 273.595,283.775 273.598 C 283.541 273.599,282.641 273.937,281.775 274.349 C 278.341 275.983,273.486 277.364,266.600 278.666 C 261.960 279.544,245.741 279.669,241.200 278.862 C 231.982 277.224,226.327 275.353,217.200 270.920 C 212.721 268.744,210.895 267.566,204.307 262.600 C 202.556 261.280,200.893 260.035,200.611 259.834 C 200.254 259.578,199.210 260.189,197.150 261.860 C 195.527 263.177,193.149 264.962,191.864 265.827 C 188.928 267.803,184.775 270.400,184.548 270.400 C 184.454 270.400,183.077 271.009,181.489 271.752 C 178.663 273.075,176.407 274.073,174.400 274.887 C 173.850 275.111,173.087 275.452,172.705 275.647 C 172.323 275.841,171.659 276.000,171.229 276.000 C 170.799 276.000,170.351 276.156,170.233 276.346 C 170.116 276.536,169.430 276.805,168.710 276.943 C 167.989 277.081,166.590 277.386,165.600 277.622 C 153.628 280.470,140.014 280.452,128.000 277.573 C 127.010 277.336,125.613 277.045,124.896 276.927 C 124.179 276.808,123.494 276.551,123.373 276.356 C 123.252 276.160,122.820 276.000,122.414 276.000 C 122.008 276.000,120.894 275.614,119.938 275.143 C 118.982 274.672,117.840 274.156,117.400 273.997 C 108.829 270.893,99.041 264.487,91.295 256.911 C 84.560 250.323,81.046 245.690,76.800 237.800 C 76.208 236.700,75.370 235.170,74.937 234.400 C 74.112 232.932,71.961 227.594,71.231 225.200 C 69.406 219.216,68.979 217.152,67.616 207.723 C 66.261 198.349,68.358 182.261,72.270 172.015 C 77.440 158.474,88.895 143.616,100.034 136.004 C 102.105 134.589,104.138 133.119,104.550 132.739 C 105.469 131.891,112.782 128.275,118.200 125.988 C 122.603 124.129,129.149 122.371,134.400 121.637 C 136.270 121.376,138.790 121.011,140.000 120.828 C 143.544 120.289,150.261 120.362,155.000 120.989 M237.600 180.369 C 228.990 183.684,224.180 191.991,224.220 203.476 C 224.232 207.017,224.420 209.538,224.720 210.176 C 224.984 210.739,225.356 211.605,225.546 212.100 C 228.275 219.188,233.843 222.044,242.527 220.811 C 246.452 220.253,246.800 219.929,246.800 216.834 C 246.800 216.001,246.998 214.750,247.241 214.055 C 248.016 211.833,247.573 211.515,244.956 212.415 C 234.242 216.101,228.893 205.276,235.455 193.184 C 237.988 188.516,243.231 187.034,248.926 189.375 C 250.526 190.033,251.298 190.186,251.399 189.866 C 253.013 184.783,252.754 181.434,250.700 180.817 C 249.765 180.536,248.478 180.148,247.840 179.953 C 245.854 179.348,239.592 179.602,237.600 180.369 M316.216 181.300 C 316.107 181.795,315.826 183.550,315.592 185.200 C 314.619 192.071,314.734 191.836,313.170 190.161 C 308.643 185.311,300.845 186.978,296.442 193.736 C 287.190 207.936,295.029 226.066,307.734 219.850 C 310.307 218.591,310.400 218.582,310.400 219.592 C 310.400 220.630,311.442 220.866,315.387 220.719 L 318.572 220.600 319.041 218.000 C 319.706 214.308,320.301 210.670,320.806 207.200 C 321.047 205.550,321.404 203.300,321.600 202.200 C 321.795 201.100,322.150 198.896,322.387 197.302 C 323.893 187.184,324.303 184.738,324.841 182.692 C 325.412 180.519,325.191 180.400,320.584 180.400 C 316.586 180.400,316.407 180.437,316.216 181.300 M81.837 181.500 C 81.718 181.885,81.351 184.000,81.022 186.200 C 80.692 188.400,80.168 191.730,79.856 193.600 C 79.544 195.470,79.076 198.440,78.815 200.200 C 78.554 201.960,78.190 204.210,78.005 205.200 C 77.820 206.190,77.463 208.350,77.212 210.000 C 76.551 214.348,76.004 217.228,75.576 218.628 C 75.369 219.304,75.200 219.979,75.200 220.128 C 75.200 220.522,82.714 220.463,82.958 220.068 C 83.071 219.886,83.357 218.581,83.594 217.168 C 83.831 215.756,84.884 209.476,85.935 203.214 C 86.986 196.951,87.969 192.026,88.119 192.269 C 88.527 192.928,89.184 206.049,89.192 213.700 L 89.200 220.400 91.567 220.400 C 94.302 220.400,95.200 220.141,95.200 219.352 C 95.200 219.042,95.358 218.477,95.551 218.095 C 95.744 217.713,96.116 216.680,96.377 215.800 C 96.639 214.920,97.013 213.840,97.210 213.400 C 97.406 212.960,98.029 211.187,98.594 209.459 C 99.159 207.731,99.860 205.841,100.150 205.259 C 100.440 204.677,101.451 201.950,102.396 199.200 C 103.341 196.450,104.269 194.029,104.457 193.820 C 104.646 193.611,104.800 193.105,104.800 192.696 C 104.800 192.252,104.979 192.064,105.246 192.228 C 105.534 192.407,105.592 193.085,105.410 194.152 C 105.256 195.058,104.979 196.790,104.794 198.000 C 104.610 199.210,104.253 201.550,104.000 203.200 C 103.747 204.850,103.389 207.190,103.205 208.400 C 103.020 209.610,102.670 211.860,102.428 213.400 C 102.185 214.940,101.875 217.145,101.738 218.300 L 101.488 220.400 105.320 220.400 C 109.676 220.400,109.655 220.414,110.056 217.200 C 110.208 215.990,110.542 213.740,110.800 212.200 C 111.058 210.660,111.418 208.410,111.600 207.200 C 112.053 204.189,112.687 200.274,113.187 197.400 C 113.416 196.080,113.775 193.830,113.984 192.400 C 114.193 190.970,114.557 188.720,114.793 187.400 C 115.029 186.080,115.330 184.050,115.462 182.890 L 115.701 180.779 109.373 180.890 L 103.045 181.000 101.764 184.600 C 101.059 186.580,99.283 191.848,97.816 196.308 C 96.349 200.767,95.000 204.324,94.818 204.211 C 94.637 204.099,94.355 198.786,94.193 192.404 L 93.899 180.800 87.976 180.800 C 82.685 180.800,82.031 180.875,81.837 181.500 M167.490 183.500 C 167.084 184.275,165.858 191.371,164.190 202.600 C 163.830 205.020,163.370 207.978,163.168 209.173 C 161.590 218.494,164.220 222.011,171.854 220.791 C 175.270 220.246,175.442 220.090,175.708 217.297 C 175.828 216.034,176.052 214.685,176.206 214.300 C 176.448 213.695,176.239 213.600,174.665 213.600 C 171.465 213.600,170.567 212.416,171.157 208.970 C 172.038 203.825,172.377 201.810,172.850 198.918 L 173.322 196.036 175.561 195.918 L 177.800 195.800 178.090 194.000 C 178.249 193.010,178.498 191.266,178.643 190.124 L 178.907 188.048 176.953 187.924 C 174.812 187.788,174.821 187.807,175.417 184.700 L 175.705 183.200 171.676 183.200 C 169.460 183.200,167.576 183.335,167.490 183.500 M190.400 187.446 C 183.792 188.683,178.389 197.400,178.405 206.800 C 178.423 217.116,184.847 222.132,196.391 220.843 C 201.238 220.302,201.420 220.174,201.975 216.909 C 202.228 215.419,202.529 213.885,202.644 213.500 C 202.911 212.609,202.028 212.590,198.920 213.418 C 191.970 215.269,186.684 213.326,186.625 208.900 L 186.600 207.000 195.060 206.892 C 201.962 206.804,203.561 206.679,203.740 206.211 C 204.560 204.075,204.856 197.302,204.224 195.135 C 202.543 189.367,196.901 186.229,190.400 187.446 M262.000 187.434 C 255.735 188.526,255.911 188.413,255.260 191.767 C 254.515 195.601,254.599 196.137,255.900 195.853 C 264.533 193.964,269.409 194.875,269.123 198.323 L 269.000 199.800 265.222 199.870 C 255.446 200.050,250.800 203.910,250.800 211.853 C 250.800 220.189,257.929 223.954,264.712 219.200 C 266.852 217.700,267.200 217.700,267.200 219.200 L 267.200 220.400 270.557 220.400 L 273.914 220.400 274.562 217.700 C 275.262 214.786,277.007 202.961,277.436 198.223 C 278.167 190.163,271.816 185.724,262.000 187.434 M122.600 188.106 C 119.014 189.013,119.004 189.024,118.456 192.507 C 117.912 195.968,117.965 196.248,119.066 195.697 C 119.470 195.495,121.510 195.116,123.600 194.854 C 129.928 194.061,132.936 195.447,132.197 198.814 L 131.936 200.000 128.868 200.014 C 117.261 200.068,110.272 208.442,114.524 217.200 C 116.288 220.833,123.078 221.993,127.400 219.400 C 129.831 217.941,130.183 217.916,130.192 219.200 C 130.200 220.172,130.290 220.203,133.362 220.318 C 137.293 220.465,137.104 220.692,137.809 214.969 C 138.132 212.346,138.565 209.030,138.772 207.600 C 138.978 206.170,139.349 203.482,139.595 201.627 C 139.842 199.771,140.136 198.104,140.249 197.921 C 141.114 196.521,138.604 190.536,136.662 189.369 C 133.741 187.613,126.957 187.003,122.600 188.106 M150.200 187.990 C 149.760 188.174,148.822 188.541,148.115 188.805 C 140.366 191.698,140.854 202.935,148.914 207.167 C 156.422 211.109,153.453 215.466,144.293 213.946 C 142.482 213.646,140.832 213.400,140.627 213.400 C 139.988 213.400,139.091 219.686,139.679 220.049 C 143.056 222.136,155.969 220.551,158.459 217.743 C 163.221 212.376,161.537 204.793,154.834 201.417 C 151.947 199.963,151.200 199.156,151.200 197.488 C 151.200 195.489,152.445 194.992,157.245 195.076 L 161.600 195.151 161.600 193.753 C 161.600 192.984,161.808 191.528,162.063 190.517 C 162.740 187.825,162.256 187.593,156.024 187.627 C 153.261 187.642,150.640 187.805,150.200 187.990 M221.400 188.340 C 220.740 188.745,219.617 189.677,218.905 190.410 C 217.396 191.962,217.066 191.863,217.595 190.017 C 217.805 189.285,217.881 188.532,217.765 188.343 C 217.357 187.684,210.512 187.931,210.250 188.614 C 209.850 189.657,207.616 203.129,206.472 211.400 C 206.259 212.940,205.991 214.470,205.876 214.800 C 205.761 215.130,205.565 216.525,205.440 217.900 L 205.212 220.400 209.151 220.400 L 213.091 220.400 213.520 218.100 C 213.757 216.835,214.151 214.450,214.397 212.800 C 216.036 201.809,217.670 197.894,220.894 197.234 C 222.119 196.984,222.225 196.812,223.025 193.785 C 223.487 192.033,224.166 190.024,224.533 189.320 C 224.900 188.616,225.200 187.941,225.200 187.820 C 225.200 187.297,222.496 187.667,221.400 188.340 M291.936 188.409 C 291.131 188.834,289.997 189.771,289.417 190.491 L 288.362 191.800 288.481 190.000 L 288.600 188.200 285.036 188.084 C 280.859 187.947,280.711 188.043,280.382 191.106 C 280.141 193.351,277.088 214.248,276.423 218.200 C 276.019 220.604,275.467 220.261,280.118 220.494 L 284.036 220.690 284.618 219.565 C 284.938 218.946,285.200 217.880,285.200 217.197 C 285.200 216.513,285.364 215.200,285.564 214.277 C 285.764 213.355,286.129 211.340,286.376 209.800 C 287.939 200.034,288.958 197.708,291.880 197.233 C 293.297 197.003,293.332 196.952,294.192 193.799 C 294.672 192.039,295.276 190.206,295.533 189.726 C 296.717 187.513,294.895 186.846,291.936 188.409 M195.059 195.171 C 196.470 196.031,197.420 198.271,197.030 199.821 C 196.745 200.959,187.902 201.404,187.506 200.300 C 186.312 196.975,191.850 193.214,195.059 195.171 M310.313 196.224 C 314.474 199.139,312.414 211.104,307.525 212.420 C 303.501 213.504,301.597 211.550,301.604 206.346 C 301.616 198.658,306.193 193.338,310.313 196.224 M130.730 207.164 C 131.208 212.177,125.279 216.516,122.182 213.418 C 119.736 210.972,121.864 206.817,126.000 205.963 C 129.191 205.304,130.586 205.658,130.730 207.164 M267.867 206.630 C 269.321 210.420,262.506 216.143,259.782 213.418 C 258.554 212.190,258.837 207.339,260.146 207.194 C 260.176 207.191,260.920 206.929,261.800 206.612 C 264.047 205.802,267.553 205.813,267.867 206.630 M323.200 216.437 C 322.748 216.756,322.724 216.911,323.100 217.064 C 323.691 217.304,323.782 219.600,323.200 219.600 C 322.980 219.600,322.806 219.825,322.813 220.100 C 322.821 220.375,323.164 220.195,323.577 219.700 C 324.418 218.693,325.034 218.553,325.335 219.300 C 325.446 219.575,325.551 219.179,325.568 218.420 C 325.592 217.390,325.485 217.155,325.146 217.494 C 324.807 217.833,324.553 217.810,324.146 217.403 C 323.338 216.595,323.451 216.464,325.100 216.291 L 326.600 216.134 325.200 216.073 C 324.430 216.040,323.530 216.203,323.200 216.437 M326.901 218.200 C 326.905 219.080,326.987 219.393,327.083 218.895 C 327.179 218.398,327.175 217.678,327.075 217.295 C 326.975 216.913,326.896 217.320,326.901 218.200 M325.500 241.876 C 325.115 241.976,324.485 241.976,324.100 241.876 C 323.715 241.775,324.030 241.693,324.800 241.693 C 325.570 241.693,325.885 241.775,325.500 241.876 M324.400 243.649 C 324.400 243.959,324.585 243.944,325.000 243.600 C 325.510 243.176,325.595 243.274,325.568 244.251 C 325.551 244.883,325.446 245.175,325.335 244.900 C 325.224 244.625,324.893 244.400,324.600 244.400 C 324.307 244.400,323.976 244.625,323.865 244.900 C 323.754 245.175,323.649 244.905,323.632 244.300 C 323.614 243.695,323.780 243.200,324.000 243.200 C 324.220 243.200,324.400 243.402,324.400 243.649 " stroke="none" fill="#f2f2f2" fill-rule="evenodd"></path><path id="path4" d="M61.762 95.205 C 57.333 95.677,52.985 97.163,48.830 99.625 C 42.868 103.159,35.600 113.133,35.600 117.781 C 35.600 118.315,35.420 118.864,35.200 119.000 C 34.980 119.136,34.796 119.912,34.790 120.724 C 34.785 121.536,34.624 122.875,34.433 123.700 C 34.229 124.575,34.233 125.200,34.442 125.200 C 34.639 125.200,34.800 125.391,34.800 125.624 C 34.800 125.857,34.620 125.936,34.400 125.800 C 34.149 125.645,34.000 126.529,34.000 128.176 C 34.000 130.295,34.121 130.800,34.629 130.800 C 36.486 130.800,36.400 127.171,36.400 205.353 C 36.400 247.653,36.552 279.152,36.758 279.681 C 36.955 280.187,37.345 281.410,37.624 282.400 C 38.175 284.353,40.280 288.677,41.094 289.529 C 41.372 289.819,41.600 290.206,41.600 290.387 C 41.600 291.440,49.974 298.800,51.172 298.800 C 51.407 298.800,51.600 298.959,51.600 299.153 C 51.600 299.348,51.915 299.600,52.300 299.713 C 52.685 299.827,54.260 300.418,55.800 301.027 L 58.600 302.134 196.400 302.501 C 338.514 302.879,338.956 302.876,343.600 301.348 C 346.103 300.524,351.200 297.979,351.200 297.552 C 351.200 297.359,351.425 297.198,351.700 297.196 C 352.854 297.186,360.400 288.540,360.400 287.228 C 360.400 286.993,360.580 286.800,360.800 286.800 C 361.020 286.800,361.200 286.440,361.200 286.000 C 361.200 285.560,361.380 285.200,361.600 285.200 C 361.820 285.200,362.000 284.761,362.000 284.224 C 362.000 283.687,362.180 283.136,362.400 283.000 C 362.620 282.864,362.800 282.324,362.800 281.800 C 362.800 281.276,362.980 280.736,363.200 280.600 C 363.458 280.440,363.600 273.129,363.600 259.976 C 363.600 246.659,363.739 239.600,364.000 239.600 C 364.220 239.600,364.400 239.780,364.400 240.000 C 364.400 240.220,364.730 240.400,365.134 240.400 C 365.839 240.400,365.878 238.830,366.134 200.134 C 366.685 116.689,366.813 119.973,362.707 111.821 C 360.530 107.498,355.277 101.547,352.537 100.298 C 352.022 100.064,351.600 99.752,351.600 99.607 C 351.600 99.260,346.903 97.098,343.600 95.924 L 341.000 95.000 202.800 94.952 C 126.790 94.925,63.323 95.039,61.762 95.205 M343.200 99.136 C 353.368 102.797,360.294 110.230,362.643 120.000 C 363.425 123.256,363.424 275.461,362.641 279.000 C 360.250 289.810,352.126 298.404,341.818 301.026 C 338.414 301.893,61.787 301.905,58.600 301.039 C 49.781 298.643,43.526 293.512,39.686 285.525 C 38.979 284.054,38.400 282.657,38.400 282.420 C 38.400 282.183,38.233 281.677,38.029 281.295 C 36.889 279.162,36.800 273.181,36.800 199.123 C 36.800 119.049,36.749 121.427,38.558 116.462 C 41.935 107.193,51.242 99.634,60.800 98.398 C 62.010 98.241,125.460 98.133,201.800 98.157 L 340.600 98.200 343.200 99.136 M140.000 120.828 C 138.790 121.011,136.270 121.376,134.400 121.637 C 129.149 122.371,122.603 124.129,118.200 125.988 C 112.782 128.275,105.469 131.891,104.550 132.739 C 104.138 133.119,102.105 134.589,100.034 136.004 C 88.842 143.653,77.465 158.438,72.212 172.161 C 70.970 175.405,68.784 183.671,68.836 184.927 C 68.875 185.881,69.065 185.264,69.979 181.200 C 71.637 173.833,75.960 163.204,77.300 163.201 C 77.465 163.200,77.600 162.930,77.600 162.600 C 77.600 162.270,77.735 161.999,77.900 161.997 C 78.065 161.995,78.398 161.590,78.640 161.097 C 79.638 159.065,81.025 156.570,81.400 156.135 C 81.620 155.880,82.610 154.645,83.600 153.392 C 87.064 149.006,89.790 145.791,90.990 144.674 C 97.105 138.986,97.322 138.806,101.405 136.019 C 103.162 134.819,104.660 133.694,104.733 133.519 C 104.807 133.344,105.122 133.200,105.433 133.200 C 105.745 133.200,106.000 133.020,106.000 132.800 C 106.000 132.580,106.270 132.400,106.600 132.400 C 106.930 132.400,107.200 132.220,107.200 132.000 C 107.200 131.780,107.560 131.600,108.000 131.600 C 108.440 131.600,108.800 131.420,108.800 131.200 C 108.800 130.980,109.160 130.800,109.600 130.800 C 110.040 130.800,110.400 130.620,110.400 130.400 C 110.400 130.180,110.760 130.000,111.200 130.000 C 111.640 130.000,112.000 129.820,112.000 129.600 C 112.000 129.380,112.360 129.200,112.800 129.200 C 113.240 129.200,113.600 129.020,113.600 128.800 C 113.600 128.580,113.960 128.400,114.400 128.400 C 114.840 128.400,115.200 128.220,115.200 128.000 C 115.200 127.780,115.562 127.600,116.005 127.600 C 116.448 127.600,117.123 127.432,117.505 127.226 C 117.887 127.021,118.785 126.617,119.500 126.329 C 120.215 126.040,120.800 125.669,120.800 125.502 C 120.800 125.336,121.115 125.198,121.500 125.195 C 121.885 125.193,123.640 124.828,125.400 124.385 C 134.146 122.182,136.592 121.897,146.800 121.897 C 156.516 121.897,159.199 122.182,166.800 124.017 C 167.570 124.203,169.088 124.566,170.173 124.825 C 171.259 125.084,172.749 125.634,173.486 126.048 C 174.222 126.462,175.179 126.800,175.612 126.800 C 176.045 126.800,176.400 126.980,176.400 127.200 C 176.400 127.420,176.850 127.600,177.400 127.600 C 177.950 127.600,178.400 127.780,178.400 128.000 C 178.400 128.220,178.760 128.400,179.200 128.400 C 179.640 128.400,180.000 128.580,180.000 128.800 C 180.000 129.020,180.360 129.200,180.800 129.200 C 181.240 129.200,181.600 129.380,181.600 129.600 C 181.600 129.820,181.834 130.000,182.120 130.000 C 182.856 130.000,184.793 130.941,184.797 131.300 C 184.799 131.465,185.160 131.600,185.600 131.600 C 186.040 131.600,186.400 131.780,186.400 132.000 C 186.400 132.220,186.643 132.400,186.941 132.400 C 187.238 132.400,188.016 132.895,188.670 133.500 C 189.324 134.105,190.206 134.797,190.630 135.038 C 192.972 136.368,193.432 136.669,194.231 137.400 C 194.712 137.840,195.930 138.830,196.938 139.600 C 197.945 140.370,198.777 141.231,198.785 141.514 C 198.796 141.907,198.992 141.925,199.614 141.592 C 200.392 141.176,193.755 135.284,191.600 134.478 C 191.270 134.355,190.370 133.762,189.600 133.160 C 188.830 132.559,187.550 131.709,186.755 131.271 C 185.960 130.833,184.970 130.284,184.555 130.050 C 172.435 123.220,152.042 118.999,140.000 120.828 M81.476 180.657 C 81.324 180.809,81.214 181.578,81.232 182.367 C 81.264 183.852,81.361 183.769,81.773 181.900 L 82.015 180.800 87.997 180.800 L 93.979 180.800 94.106 186.800 L 94.232 192.801 94.216 186.700 L 94.200 180.600 87.976 180.490 C 84.553 180.430,81.628 180.505,81.476 180.657 M102.667 180.667 C 102.520 180.813,102.405 181.218,102.412 181.567 C 102.422 182.103,102.487 182.093,102.832 181.500 C 103.192 180.881,103.956 180.800,109.420 180.800 L 115.600 180.800 115.641 182.300 L 115.682 183.800 116.009 182.410 C 116.189 181.645,116.250 180.880,116.144 180.710 C 115.911 180.332,103.042 180.291,102.667 180.667 M101.429 184.429 C 101.058 185.561,100.837 186.570,100.937 186.670 C 101.037 186.770,101.425 185.929,101.800 184.800 C 102.175 183.671,102.396 182.663,102.292 182.559 C 102.188 182.454,101.799 183.296,101.429 184.429 M166.987 183.000 C 166.884 183.330,166.709 183.887,166.598 184.238 C 166.487 184.589,166.049 184.967,165.626 185.077 C 164.516 185.367,164.220 186.400,165.247 186.400 C 166.023 186.400,166.057 186.571,165.857 189.500 L 165.646 192.600 166.050 190.200 C 166.272 188.880,166.685 186.810,166.967 185.600 L 167.479 183.400 171.594 183.285 L 175.709 183.171 175.419 184.685 C 174.821 187.810,174.811 187.788,176.953 187.924 L 178.907 188.048 178.649 190.124 C 178.507 191.266,178.243 193.047,178.062 194.083 C 177.880 195.118,177.856 195.889,178.007 195.796 C 178.159 195.702,178.515 194.264,178.800 192.600 C 179.085 190.936,179.471 189.480,179.659 189.364 C 181.167 188.431,179.621 187.215,176.867 187.168 C 175.840 187.151,175.225 187.046,175.500 186.935 C 175.775 186.824,176.000 186.129,176.000 185.390 C 176.000 184.652,176.181 183.935,176.403 183.798 C 176.655 183.642,176.591 183.334,176.232 182.974 C 175.382 182.125,167.254 182.147,166.987 183.000 M230.995 183.753 C 229.898 184.497,228.471 185.641,227.825 186.294 C 226.714 187.419,226.509 187.473,224.025 187.313 C 221.552 187.153,221.319 187.214,220.000 188.373 L 218.600 189.603 218.397 188.501 L 218.194 187.400 214.256 187.285 C 210.055 187.162,209.200 187.446,209.200 188.961 C 209.200 189.553,208.823 189.967,208.000 190.278 C 206.886 190.698,206.800 190.875,206.800 192.739 C 206.800 193.844,206.612 195.242,206.383 195.845 C 206.016 196.809,206.094 197.045,207.023 197.786 L 208.080 198.629 207.469 202.014 C 206.636 206.628,206.297 210.029,206.773 209.000 C 206.977 208.560,207.156 207.528,207.172 206.706 C 207.187 205.884,207.380 204.444,207.601 203.506 C 207.821 202.568,208.376 199.370,208.833 196.400 C 209.290 193.430,209.837 190.325,210.048 189.500 L 210.431 188.000 213.992 188.000 C 217.943 188.000,218.142 188.111,217.595 190.017 C 217.066 191.863,217.396 191.962,218.905 190.410 C 220.725 188.537,222.386 187.603,223.900 187.601 C 225.406 187.600,225.416 187.626,224.533 189.320 C 224.166 190.024,223.487 192.033,223.025 193.785 C 222.225 196.812,222.119 196.984,220.894 197.234 C 219.164 197.588,218.621 198.101,217.419 200.511 C 216.206 202.947,216.070 203.946,217.206 202.083 C 217.946 200.869,218.127 200.786,219.505 201.022 C 223.198 201.654,223.289 201.781,223.802 207.000 C 224.363 212.697,229.345 220.400,232.470 220.400 C 232.738 220.400,232.146 219.886,231.155 219.257 C 228.573 217.620,226.801 215.358,225.546 212.100 C 225.356 211.605,224.984 210.739,224.720 210.176 C 224.420 209.538,224.232 207.017,224.220 203.476 C 224.190 195.036,226.055 189.954,231.155 184.573 C 232.287 183.378,233.164 182.400,233.102 182.400 C 233.040 182.400,232.092 183.009,230.995 183.753 M314.815 182.754 C 313.697 183.066,313.299 184.109,313.240 186.876 C 313.218 187.908,313.006 188.872,312.770 189.019 C 312.365 189.269,313.792 191.200,314.383 191.200 C 314.517 191.200,314.837 189.985,315.093 188.500 C 315.814 184.332,316.083 182.396,315.935 182.440 C 315.861 182.462,315.357 182.603,314.815 182.754 M80.669 185.600 C 80.540 186.370,80.338 187.630,80.219 188.400 C 80.100 189.170,79.830 190.880,79.619 192.200 C 79.408 193.520,79.034 195.860,78.787 197.400 C 78.541 198.940,78.173 201.190,77.971 202.400 C 77.768 203.610,77.429 205.680,77.219 207.000 C 76.493 211.543,76.039 214.206,75.583 216.600 C 74.751 220.963,74.424 220.600,79.182 220.600 L 83.364 220.600 83.893 218.000 C 84.185 216.570,84.361 215.040,84.286 214.600 C 84.211 214.160,84.009 214.700,83.837 215.800 C 83.665 216.900,83.395 218.340,83.238 219.000 L 82.951 220.200 79.075 220.314 C 76.944 220.377,75.200 220.300,75.200 220.143 C 75.200 219.986,75.369 219.304,75.576 218.628 C 75.977 217.317,76.473 214.724,77.188 210.200 C 77.431 208.660,77.796 206.410,77.999 205.200 C 78.203 203.990,78.552 201.830,78.777 200.400 C 79.001 198.970,79.649 194.951,80.216 191.470 C 80.783 187.988,81.169 184.928,81.074 184.670 C 80.980 184.411,80.797 184.830,80.669 185.600 M115.089 185.200 C 114.936 185.750,114.827 186.740,114.846 187.400 C 114.877 188.492,114.914 188.458,115.252 187.011 C 115.675 185.206,115.531 183.611,115.089 185.200 M68.185 188.185 C 68.030 189.423,68.000 190.534,68.119 190.652 C 68.237 190.770,68.461 189.854,68.615 188.615 C 68.770 187.377,68.800 186.266,68.681 186.148 C 68.563 186.030,68.339 186.946,68.185 188.185 M189.800 186.800 C 189.664 187.020,189.191 187.200,188.748 187.200 C 187.357 187.200,182.800 190.647,182.800 191.699 C 182.800 191.907,182.461 192.554,182.047 193.138 C 180.846 194.830,179.598 197.182,179.619 197.712 C 179.629 197.980,180.124 197.290,180.719 196.177 C 184.301 189.475,187.194 187.450,193.200 187.446 C 201.549 187.439,205.464 192.287,204.437 201.361 C 204.012 205.119,204.073 206.963,204.541 204.529 C 206.021 196.832,204.178 188.800,200.930 188.800 C 200.639 188.800,200.399 188.665,200.397 188.500 C 200.393 188.099,198.419 187.200,197.544 187.200 C 197.161 187.200,196.736 187.020,196.600 186.800 C 196.464 186.580,194.934 186.400,193.200 186.400 C 191.466 186.400,189.936 186.580,189.800 186.800 M99.971 188.245 C 99.723 188.880,99.068 190.840,98.517 192.600 C 97.966 194.360,96.915 197.600,96.181 199.800 L 94.848 203.800 94.710 199.000 L 94.572 194.200 94.486 199.076 C 94.439 201.758,94.565 204.055,94.767 204.180 C 95.112 204.393,100.866 187.579,100.563 187.245 C 100.486 187.159,100.219 187.609,99.971 188.245 M126.900 187.494 C 127.945 187.576,129.655 187.576,130.700 187.494 C 131.745 187.412,130.890 187.344,128.800 187.344 C 126.710 187.344,125.855 187.412,126.900 187.494 M153.913 187.495 C 155.076 187.576,156.876 187.576,157.913 187.493 C 158.951 187.411,158.000 187.345,155.800 187.346 C 153.600 187.347,152.751 187.414,153.913 187.495 M305.700 187.476 C 306.085 187.576,306.715 187.576,307.100 187.476 C 307.485 187.375,307.170 187.293,306.400 187.293 C 305.630 187.293,305.315 187.375,305.700 187.476 M121.600 188.000 L 120.600 188.320 121.600 188.332 C 122.150 188.338,122.960 188.189,123.400 188.000 L 124.200 187.656 123.400 187.668 C 122.960 187.674,122.150 187.824,121.600 188.000 M133.600 188.000 C 133.930 188.213,134.428 188.391,134.706 188.394 C 137.827 188.432,140.888 194.586,140.030 199.100 C 139.832 200.145,139.457 202.620,139.198 204.600 C 138.939 206.580,138.571 209.100,138.381 210.200 C 138.191 211.300,137.948 213.460,137.842 215.000 L 137.648 217.800 138.038 215.600 C 138.253 214.390,138.593 212.230,138.796 210.800 C 138.998 209.370,139.341 206.940,139.559 205.400 C 139.776 203.860,140.171 201.155,140.435 199.389 C 141.206 194.234,139.504 190.193,135.807 188.404 C 134.047 187.551,132.456 187.260,133.600 188.000 M147.724 188.574 C 143.145 190.706,140.922 196.690,142.823 201.768 C 143.747 204.239,144.799 205.263,148.836 207.621 C 155.896 211.744,152.663 215.212,143.492 213.354 C 140.941 212.837,140.241 212.810,139.990 213.216 C 139.594 213.857,139.064 217.997,139.342 218.276 C 139.457 218.390,139.676 217.381,139.828 216.033 C 140.169 213.019,139.900 213.155,144.042 213.894 C 153.358 215.556,156.535 211.169,148.914 207.167 C 140.854 202.935,140.366 191.698,148.115 188.805 C 150.571 187.888,151.025 187.655,150.400 187.631 C 150.070 187.618,148.866 188.043,147.724 188.574 M161.900 188.333 C 162.720 189.192,162.917 189.169,162.567 188.257 C 162.428 187.896,162.064 187.600,161.757 187.600 C 161.333 187.600,161.367 187.775,161.900 188.333 M283.100 187.893 C 284.035 187.977,285.565 187.977,286.500 187.893 C 287.435 187.809,286.670 187.740,284.800 187.740 C 282.930 187.740,282.165 187.809,283.100 187.893 M238.569 189.700 C 237.513 190.415,236.316 191.603,235.910 192.340 L 235.171 193.681 236.286 192.804 C 239.503 190.273,242.609 190.188,247.161 192.507 C 248.947 193.416,249.067 193.394,249.376 192.100 C 249.520 191.495,249.726 190.704,249.833 190.342 C 250.469 188.190,241.552 187.682,238.569 189.700 M114.290 189.950 C 114.131 190.692,114.020 191.863,114.044 192.550 C 114.081 193.617,114.141 193.536,114.449 192.000 C 114.648 191.010,114.759 189.840,114.696 189.400 C 114.618 188.859,114.486 189.037,114.290 189.950 M118.188 191.338 C 118.039 192.335,117.999 193.386,118.100 193.675 C 118.200 193.964,118.418 193.243,118.582 192.074 C 118.747 190.905,118.787 189.854,118.671 189.738 C 118.555 189.622,118.338 190.342,118.188 191.338 M255.200 189.933 C 255.200 190.190,254.921 190.400,254.580 190.400 C 252.228 190.400,250.800 192.996,250.800 197.274 C 250.800 198.807,250.851 198.874,251.829 198.629 C 257.690 197.158,263.850 197.493,264.525 199.321 C 264.744 199.914,265.165 200.021,266.896 199.921 L 269.000 199.800 269.123 198.323 C 269.409 194.875,264.533 193.964,255.900 195.853 C 254.610 196.135,254.495 195.462,255.239 191.992 C 255.481 190.866,255.571 189.837,255.439 189.706 C 255.308 189.574,255.200 189.677,255.200 189.933 M161.896 191.150 C 161.733 191.893,161.600 193.097,161.600 193.826 L 161.600 195.151 157.245 195.076 C 152.445 194.992,151.200 195.489,151.200 197.488 C 151.200 199.156,151.947 199.963,154.834 201.417 C 161.537 204.793,163.221 212.376,158.459 217.743 C 155.725 220.825,139.932 222.168,139.070 219.392 C 138.938 218.967,138.901 218.997,138.946 219.492 C 139.053 220.674,141.426 221.153,147.296 221.177 C 157.474 221.219,161.313 218.322,161.346 210.573 C 161.368 205.565,160.105 203.636,155.205 201.188 C 152.287 199.732,151.631 199.066,151.613 197.549 C 151.591 195.735,152.486 195.400,157.350 195.400 L 161.776 195.400 162.095 193.600 C 162.512 191.245,162.339 189.124,161.896 191.150 M278.448 191.300 C 278.265 191.795,277.901 194.180,277.640 196.600 C 276.866 203.770,275.192 215.213,274.524 217.900 L 273.903 220.400 270.551 220.400 L 267.200 220.400 267.200 219.200 C 267.200 217.699,266.850 217.699,264.712 219.205 C 263.770 219.868,262.190 220.577,261.200 220.781 L 259.400 221.152 261.000 221.094 C 262.074 221.056,263.257 220.601,264.600 219.711 C 266.584 218.395,266.601 218.392,266.734 219.292 C 266.943 220.708,267.253 220.829,270.823 220.891 L 274.173 220.949 274.765 218.675 C 275.487 215.905,276.191 215.673,275.904 218.300 C 275.590 221.164,275.635 221.200,279.457 221.200 C 281.615 221.200,282.757 221.055,282.600 220.800 C 282.464 220.580,280.904 220.400,279.134 220.400 C 276.230 220.400,275.941 220.331,276.188 219.700 C 276.338 219.315,276.623 217.470,276.820 215.600 C 277.017 213.730,277.818 208.150,278.600 203.200 C 280.726 189.732,280.671 190.400,279.646 190.400 C 279.113 190.400,278.652 190.746,278.448 191.300 M67.454 193.856 C 67.123 196.277,67.168 204.961,67.523 206.958 C 67.675 207.815,67.800 204.800,67.800 200.258 C 67.800 191.095,67.809 191.267,67.454 193.856 M87.628 192.876 C 87.682 194.648,88.340 195.575,88.372 193.924 C 88.387 193.112,88.220 192.336,88.000 192.200 C 87.775 192.061,87.612 192.357,87.628 192.876 M104.800 192.696 C 104.800 193.105,104.649 193.611,104.465 193.820 C 104.070 194.267,102.386 198.918,102.430 199.441 C 102.480 200.048,103.939 196.649,103.970 195.851 C 103.994 195.261,104.117 195.199,104.551 195.559 C 104.987 195.921,105.153 195.827,105.346 195.108 C 105.712 193.742,105.649 192.477,105.200 192.200 C 104.980 192.064,104.800 192.287,104.800 192.696 M295.989 193.012 C 295.466 193.568,294.825 193.942,294.564 193.842 C 294.264 193.726,294.164 193.942,294.292 194.430 C 294.403 194.853,294.305 195.200,294.074 195.200 C 293.844 195.200,293.598 195.603,293.528 196.095 C 293.431 196.773,293.058 197.044,291.986 197.218 C 289.965 197.544,289.624 197.847,288.555 200.263 C 287.334 203.024,287.339 203.040,288.983 201.786 C 290.295 200.785,291.534 200.736,290.933 201.709 C 290.476 202.449,289.643 207.643,289.635 209.800 C 289.615 215.748,293.104 222.319,295.976 221.745 C 296.609 221.618,297.222 221.713,297.375 221.960 C 297.525 222.202,298.132 222.406,298.724 222.413 C 299.316 222.420,300.149 222.690,300.576 223.013 C 301.926 224.034,307.200 222.874,307.200 221.556 C 307.200 220.670,307.960 221.318,308.073 222.300 L 308.200 223.400 312.102 223.515 L 316.004 223.629 316.494 222.515 C 316.763 221.902,317.167 221.268,317.392 221.106 C 317.616 220.944,316.420 220.809,314.733 220.806 C 311.142 220.799,310.400 220.585,310.400 219.557 C 310.400 218.585,310.295 218.597,307.734 219.850 C 295.261 225.952,287.123 207.791,296.203 194.116 C 297.689 191.878,297.580 191.318,295.989 193.012 M165.089 193.600 C 164.936 194.150,164.827 195.140,164.846 195.800 C 164.877 196.892,164.914 196.858,165.252 195.411 C 165.675 193.606,165.531 192.011,165.089 193.600 M113.489 195.200 C 113.336 195.750,113.227 196.740,113.246 197.400 C 113.277 198.492,113.314 198.458,113.652 197.011 C 114.075 195.206,113.931 193.611,113.489 195.200 M122.299 194.990 C 120.594 195.253,119.078 195.588,118.931 195.736 C 118.784 195.883,119.549 195.868,120.632 195.702 C 124.666 195.083,130.237 195.327,131.159 196.162 C 131.621 196.581,132.000 196.738,132.000 196.511 C 132.000 195.847,131.130 195.347,129.123 194.858 C 126.965 194.331,126.509 194.340,122.299 194.990 M190.360 195.253 C 188.910 196.094,187.572 197.864,187.633 198.862 C 187.651 199.158,187.913 198.834,188.217 198.141 C 189.750 194.643,194.589 193.787,196.188 196.732 C 196.507 197.320,196.775 197.653,196.784 197.474 C 196.902 195.063,193.009 193.717,190.360 195.253 M87.018 196.726 C 86.853 197.895,86.813 198.946,86.929 199.062 C 87.214 199.347,87.731 195.787,87.500 195.125 C 87.400 194.836,87.182 195.557,87.018 196.726 M305.781 196.162 C 305.110 196.454,304.260 197.154,303.891 197.717 L 303.221 198.740 305.310 198.529 C 307.537 198.304,308.408 198.755,309.500 200.699 C 310.103 201.773,310.178 208.457,309.600 209.605 C 309.380 210.042,309.018 210.760,308.797 211.200 C 308.148 212.486,309.050 212.147,310.126 210.700 C 315.196 203.879,312.071 193.422,305.781 196.162 M88.668 207.985 C 88.890 222.191,88.508 220.800,92.184 220.800 C 95.119 220.800,95.122 220.799,95.561 219.540 C 96.100 217.995,96.103 217.889,95.600 218.200 C 95.380 218.336,95.200 218.777,95.200 219.181 C 95.200 220.143,94.434 220.400,91.567 220.400 L 89.200 220.400 89.146 212.900 C 89.116 208.775,88.953 203.240,88.785 200.600 C 88.593 197.597,88.549 200.363,88.668 207.985 M172.853 198.900 C 172.377 201.812,172.036 203.835,171.157 208.970 C 170.567 212.416,171.465 213.600,174.665 213.600 C 176.239 213.600,176.448 213.695,176.206 214.300 C 176.052 214.685,175.828 216.034,175.708 217.297 C 175.442 220.090,175.270 220.246,171.854 220.791 C 162.643 222.263,161.448 219.157,164.397 201.400 C 164.817 198.872,164.921 196.946,164.622 197.244 C 164.524 197.342,164.239 198.857,163.988 200.611 C 163.737 202.365,163.362 204.880,163.156 206.200 C 161.313 218.004,162.703 221.382,169.387 221.340 C 171.935 221.324,175.525 220.706,175.614 220.269 C 175.840 219.152,176.787 213.714,176.792 213.500 C 176.796 213.335,175.900 213.200,174.800 213.200 C 171.677 213.200,170.888 212.194,171.585 209.106 C 171.797 208.168,172.169 206.050,172.410 204.400 C 173.193 199.060,173.726 196.606,174.167 196.306 C 174.438 196.122,174.362 196.010,173.964 196.006 C 173.484 196.001,173.212 196.710,172.853 198.900 M104.257 198.534 C 104.079 199.817,104.027 200.961,104.141 201.075 C 104.458 201.392,104.884 198.676,104.722 197.363 C 104.620 196.528,104.488 196.858,104.257 198.534 M332.534 200.000 C 332.534 201.650,332.605 202.325,332.691 201.500 C 332.778 200.675,332.778 199.325,332.691 198.500 C 332.605 197.675,332.534 198.350,332.534 200.000 M196.751 199.000 L 196.600 200.200 192.000 200.420 L 187.400 200.640 192.092 200.720 C 197.048 200.804,197.854 200.417,197.090 198.317 C 196.986 198.033,196.834 198.340,196.751 199.000 M178.986 199.453 C 178.848 200.084,178.569 201.122,178.367 201.760 C 176.806 206.693,179.515 217.361,182.632 218.557 C 183.017 218.705,182.775 218.222,182.053 217.400 C 178.683 213.561,177.610 207.975,178.982 201.416 C 179.303 199.884,179.492 198.558,179.402 198.469 C 179.312 198.379,179.125 198.822,178.986 199.453 M112.588 200.538 C 112.439 201.535,112.399 202.586,112.500 202.875 C 112.600 203.164,112.818 202.443,112.982 201.274 C 113.147 200.105,113.187 199.054,113.071 198.938 C 112.955 198.822,112.738 199.542,112.588 200.538 M85.826 203.911 C 85.421 206.392,85.182 208.515,85.296 208.629 C 85.410 208.744,85.623 207.974,85.769 206.918 C 85.915 205.863,86.227 204.092,86.462 202.982 C 86.698 201.873,86.817 200.613,86.727 200.182 C 86.638 199.752,86.232 201.430,85.826 203.911 M127.300 199.887 C 127.905 199.978,128.895 199.978,129.500 199.887 C 130.105 199.795,129.610 199.720,128.400 199.720 C 127.190 199.720,126.695 199.795,127.300 199.887 M101.386 202.074 C 101.003 203.243,100.355 204.868,99.945 205.684 C 99.535 206.500,99.210 207.400,99.223 207.684 C 99.250 208.291,100.998 204.563,101.859 202.062 C 102.188 201.106,102.373 200.240,102.269 200.136 C 102.166 200.033,101.768 200.905,101.386 202.074 M122.400 200.400 C 121.642 200.890,122.870 200.890,124.400 200.400 C 125.380 200.086,125.376 200.079,124.200 200.046 C 123.540 200.027,122.730 200.187,122.400 200.400 M119.200 201.668 C 114.801 204.215,113.523 206.339,113.275 211.516 C 112.956 218.183,115.609 221.200,121.788 221.200 C 124.684 221.200,127.972 220.216,128.629 219.154 C 129.024 218.513,129.542 218.784,129.672 219.700 C 129.794 220.561,129.964 220.600,133.600 220.600 L 137.400 220.600 137.478 219.400 C 137.552 218.282,137.537 218.269,137.260 219.200 C 136.974 220.164,136.844 220.200,133.582 220.200 C 130.243 220.200,130.200 220.187,130.192 219.200 C 130.183 217.916,129.831 217.941,127.400 219.400 C 123.078 221.993,116.288 220.833,114.524 217.200 C 111.885 211.763,114.160 204.951,119.600 202.006 C 120.810 201.351,121.530 200.824,121.200 200.836 C 120.870 200.847,119.970 201.222,119.200 201.668 M103.419 204.118 C 103.245 205.174,103.204 206.137,103.326 206.259 C 103.636 206.570,104.111 203.842,103.904 202.940 C 103.810 202.533,103.592 203.063,103.419 204.118 M252.200 203.865 C 247.786 206.427,245.925 209.200,248.621 209.200 C 250.078 209.200,250.133 209.302,250.033 211.800 C 250.007 212.460,250.153 213.540,250.358 214.200 C 250.657 215.160,250.738 214.709,250.766 211.949 C 250.805 207.971,251.370 206.299,253.456 203.991 C 254.246 203.116,254.827 202.416,254.747 202.436 C 254.666 202.455,253.520 203.098,252.200 203.865 M215.888 204.133 C 215.730 204.536,215.611 205.256,215.625 205.733 C 215.649 206.556,215.671 206.550,216.040 205.625 C 216.254 205.089,216.373 204.369,216.303 204.025 C 216.199 203.511,216.125 203.530,215.888 204.133 M111.839 205.300 C 111.730 206.015,111.527 207.410,111.388 208.400 C 111.248 209.390,110.970 211.190,110.770 212.400 C 110.570 213.610,110.264 215.680,110.091 217.000 C 109.639 220.441,109.696 220.400,105.376 220.400 L 101.600 220.400 101.560 219.100 C 101.523 217.888,101.500 217.868,101.227 218.800 C 100.670 220.701,100.972 220.835,105.534 220.713 L 109.772 220.600 110.061 219.400 C 110.342 218.237,111.705 209.755,112.231 205.900 C 112.374 204.855,112.389 204.000,112.264 204.000 C 112.139 204.000,111.947 204.585,111.839 205.300 M126.000 205.963 C 121.864 206.817,119.736 210.972,122.182 213.418 C 125.279 216.516,131.208 212.177,130.730 207.164 C 130.586 205.658,129.191 205.304,126.000 205.963 M203.600 206.392 C 203.600 206.632,200.312 206.826,195.100 206.892 L 186.600 207.000 186.625 208.900 C 186.684 213.326,191.970 215.269,198.920 213.418 C 202.028 212.590,202.911 212.609,202.644 213.500 C 202.529 213.885,202.228 215.419,201.975 216.909 C 201.420 220.174,201.238 220.302,196.391 220.843 C 192.153 221.316,187.944 220.852,185.496 219.641 C 184.587 219.191,183.761 218.906,183.660 219.006 C 181.969 220.698,196.157 222.148,200.196 220.696 C 201.933 220.071,201.931 220.076,202.814 215.081 C 203.385 211.849,203.387 211.851,201.153 212.413 C 191.867 214.747,186.800 213.338,186.800 208.420 L 186.800 207.200 195.400 207.200 C 202.778 207.200,204.000 207.115,204.000 206.600 C 204.000 206.270,203.910 206.000,203.800 206.000 C 203.690 206.000,203.600 206.176,203.600 206.392 M261.871 206.580 C 260.557 207.049,259.256 208.135,259.212 208.800 C 259.205 208.910,260.124 208.936,261.254 208.858 C 263.235 208.721,263.302 208.750,263.097 209.658 C 262.980 210.176,262.753 211.185,262.592 211.900 C 262.352 212.968,262.420 213.200,262.974 213.200 C 264.202 213.200,263.176 213.999,261.876 214.054 C 260.785 214.101,260.744 214.136,261.594 214.295 C 264.250 214.791,268.850 209.192,267.875 206.650 C 267.558 205.826,264.100 205.786,261.871 206.580 M130.400 207.551 C 130.400 213.101,122.773 216.766,121.761 211.703 C 121.134 208.570,123.526 206.441,127.700 206.416 L 130.400 206.400 130.400 207.551 M102.640 209.126 C 102.463 210.295,102.415 211.348,102.533 211.466 C 102.847 211.780,103.296 209.069,103.115 207.952 C 103.017 207.343,102.845 207.766,102.640 209.126 M215.097 208.000 C 214.940 208.550,214.825 209.540,214.842 210.200 L 214.872 211.400 215.258 210.058 C 215.471 209.320,215.586 208.330,215.514 207.858 C 215.392 207.054,215.366 207.063,215.097 208.000 M98.600 209.200 C 98.450 209.673,98.417 210.150,98.527 210.260 C 98.637 210.370,98.850 210.073,99.000 209.600 C 99.150 209.127,99.183 208.650,99.073 208.540 C 98.963 208.430,98.750 208.727,98.600 209.200 M68.095 210.600 C 68.095 211.480,68.232 212.740,68.400 213.400 C 68.690 214.538,68.705 214.517,68.705 213.000 C 68.705 212.120,68.568 210.860,68.400 210.200 C 68.110 209.062,68.095 209.083,68.095 210.600 M84.647 210.937 C 84.478 212.002,84.432 212.965,84.544 213.078 C 84.836 213.369,85.305 210.624,85.114 209.740 C 85.027 209.333,84.816 209.871,84.647 210.937 M206.065 210.800 C 206.025 211.350,205.899 212.520,205.785 213.400 C 205.606 214.794,205.634 214.873,206.008 214.014 C 206.245 213.472,206.371 212.302,206.289 211.414 C 206.207 210.526,206.106 210.250,206.065 210.800 M97.800 211.600 C 97.650 212.073,97.617 212.550,97.727 212.660 C 97.837 212.770,98.050 212.473,98.200 212.000 C 98.350 211.527,98.383 211.050,98.273 210.940 C 98.163 210.830,97.950 211.127,97.800 211.600 M246.172 211.646 C 245.963 211.984,246.072 212.058,246.522 211.885 C 247.490 211.514,247.738 212.259,247.266 214.132 C 246.678 216.469,246.374 220.000,246.761 220.000 C 247.045 220.000,247.563 216.088,247.739 212.610 C 247.804 211.349,246.754 210.703,246.172 211.646 M214.290 213.150 C 214.131 213.893,214.020 215.063,214.044 215.750 C 214.081 216.817,214.141 216.736,214.449 215.200 C 214.648 214.210,214.759 213.040,214.696 212.600 C 214.618 212.059,214.486 212.237,214.290 213.150 M101.785 214.585 C 101.630 215.823,101.600 216.934,101.719 217.052 C 101.837 217.170,102.061 216.254,102.215 215.015 C 102.370 213.777,102.400 212.666,102.281 212.548 C 102.163 212.430,101.939 213.346,101.785 214.585 M96.977 213.843 C 96.844 214.259,96.570 215.013,96.367 215.519 C 96.165 216.024,96.013 216.744,96.029 217.119 C 96.045 217.493,96.405 216.824,96.828 215.632 C 97.251 214.440,97.512 213.379,97.408 213.275 C 97.304 213.171,97.110 213.426,96.977 213.843 M69.032 216.572 C 69.244 218.321,69.806 220.528,71.231 225.200 C 71.961 227.594,74.112 232.932,74.937 234.400 C 75.370 235.170,76.208 236.700,76.800 237.800 C 81.046 245.690,84.560 250.323,91.295 256.911 C 98.049 263.517,111.726 272.854,114.554 272.790 C 114.799 272.784,112.840 271.647,110.200 270.262 C 100.775 265.319,91.463 257.822,86.075 250.838 C 85.264 249.787,83.731 247.813,82.668 246.453 C 80.654 243.873,76.252 236.291,74.530 232.436 C 73.981 231.206,73.397 229.930,73.233 229.600 C 73.069 229.270,72.358 227.110,71.652 224.800 C 70.946 222.490,70.196 220.047,69.984 219.372 C 69.773 218.696,69.587 217.706,69.572 217.172 C 69.556 216.637,69.375 215.840,69.169 215.400 C 68.907 214.842,68.866 215.197,69.032 216.572 M205.016 217.789 C 204.650 221.209,204.640 221.200,209.001 221.200 C 213.205 221.200,214.050 220.690,213.952 218.211 C 213.909 217.126,213.861 217.177,213.495 218.700 L 213.086 220.400 209.158 220.400 L 205.230 220.400 205.473 217.800 C 205.606 216.370,205.621 215.200,205.504 215.200 C 205.388 215.200,205.168 216.365,205.016 217.789 M250.820 215.920 C 250.728 218.311,253.917 220.930,257.400 221.324 L 259.400 221.550 257.042 220.961 C 254.050 220.214,252.707 219.251,251.667 217.107 C 251.212 216.168,250.831 215.634,250.820 215.920 M323.572 215.700 C 323.153 217.223,323.312 217.890,323.946 217.269 C 324.549 216.679,324.558 216.570,324.015 216.344 C 323.644 216.189,324.034 216.018,325.000 215.911 L 326.600 215.734 325.100 215.667 C 324.275 215.630,323.588 215.645,323.572 215.700 M322.171 218.400 C 322.171 218.840,322.313 219.200,322.486 219.200 C 322.659 219.200,322.800 218.840,322.800 218.400 C 322.800 217.960,322.659 217.600,322.486 217.600 C 322.313 217.600,322.171 217.960,322.171 218.400 M233.639 220.768 C 233.990 220.990,235.790 221.259,237.639 221.366 C 240.967 221.559,240.974 221.557,238.310 221.214 C 236.831 221.024,235.031 220.755,234.310 220.617 C 233.346 220.432,233.169 220.472,233.639 220.768 M242.600 220.800 L 241.000 221.086 242.876 221.143 C 243.908 221.174,244.864 221.020,245.000 220.800 C 245.268 220.366,245.022 220.366,242.600 220.800 M323.632 244.300 C 323.649 244.905,323.754 245.175,323.865 244.900 C 323.976 244.625,324.307 244.400,324.600 244.400 C 324.893 244.400,325.224 244.625,325.335 244.900 C 325.446 245.175,325.551 244.976,325.568 244.457 C 325.591 243.777,325.433 243.579,325.000 243.745 C 324.670 243.871,324.400 243.801,324.400 243.587 C 324.400 243.374,324.220 243.200,324.000 243.200 C 323.780 243.200,323.614 243.695,323.632 244.300 M199.133 259.528 C 198.970 259.929,193.858 263.890,190.024 266.586 C 187.164 268.598,186.220 269.487,188.378 268.137 C 193.373 265.012,200.849 259.200,199.873 259.200 C 199.540 259.200,199.207 259.347,199.133 259.528 M183.200 270.447 C 177.082 273.542,170.531 276.067,166.160 277.015 C 157.251 278.946,157.183 278.953,147.200 278.977 C 137.906 278.999,135.753 278.825,130.200 277.607 C 124.569 276.372,122.058 275.614,119.041 274.240 C 116.223 272.956,115.032 272.605,115.374 273.157 C 115.524 273.401,115.909 273.600,116.229 273.600 C 116.549 273.600,117.123 273.757,117.505 273.950 C 120.598 275.508,121.776 276.000,122.414 276.000 C 122.820 276.000,123.252 276.160,123.373 276.356 C 123.494 276.551,124.179 276.808,124.896 276.927 C 125.613 277.045,127.010 277.336,128.000 277.573 C 140.014 280.452,153.628 280.470,165.600 277.622 C 166.590 277.386,167.989 277.081,168.710 276.943 C 169.430 276.805,170.116 276.536,170.233 276.346 C 170.351 276.156,170.799 276.000,171.229 276.000 C 171.659 276.000,172.323 275.841,172.705 275.647 C 173.087 275.452,173.850 275.111,174.400 274.887 C 176.407 274.073,178.663 273.075,181.489 271.752 C 183.077 271.009,184.517 270.396,184.689 270.391 C 184.860 270.386,185.450 270.030,186.000 269.600 C 187.447 268.468,186.611 268.721,183.200 270.447 " stroke="none" fill="#7f7f84" fill-rule="evenodd"></path></g></svg>